<?xml version="1.0" encoding="UTF-8"?>
<!DOCTYPE svg  PUBLIC '-//W3C//DTD SVG 20010904//EN'  'http://www.w3.org/TR/2001/REC-SVG-20010904/DTD/svg10.dtd'>
<svg width="539px" height="540px" version="1.0" viewBox="0 0 5390 5400" xmlns="http://www.w3.org/2000/svg">
<g fill="#ed423a">
<path d="m2547 5390c-167-15-373-77-545-164-166-84-215-128-822-733l-585-583 520-520c286-286 526-520 534-520 17 0 2091 2070 2091 2087 0 18-135 132-231 195-283 186-614 268-962 238z"/>
<path d="m3393 4268c-288-288-523-528-523-533 0-6 470-480 1045-1055l1044-1044 51 54c60 65 162 208 213 300 47 86 99 220 134 350 27 102 28 112 28 355v250l-32 116c-54 190-114 322-216 474-50 73-168 197-641 673l-581 582-522-522z"/>
<path d="m379 3693c-179-189-312-453-364-726-18-93-21-426-5-527 35-220 159-497 303-675 55-68 1149-1165 1162-1165s1045 1032 1045 1045c0 10-2080 2095-2090 2095-3 0-26-21-51-47z"/>
<path d="m2686 1471l-1048-1048 78-68c172-147 338-239 549-304 154-47 222-54 479-49l231 5 125 37c150 44 334 133 456 218 68 47 227 199 664 635l575 573-525 525c-289 289-527 525-530 525s-477-472-1054-1049z"/>
</g>
</svg>
