<?xml version="1.0" encoding="UTF-8"?>
<!DOCTYPE svg  PUBLIC '-//W3C//DTD SVG 20010904//EN'  'http://www.w3.org/TR/2001/REC-SVG-20010904/DTD/svg10.dtd'>
<svg width="303px" height="91px" version="1.0" viewBox="0 0 3030 910" xmlns="http://www.w3.org/2000/svg">
<g fill="#1f8bcc">
<path d="m2960 831v-80l-43 19c-59 26-179 44-254 37-68-7-122-30-167-72-34-31-56-26-56 12 0 51-8 54-152 60-150 6-195-2-228-44-28-36-26-88 10-260 36-171 35-168 10-193-35-35-79-19-109 39-12 22-61 222-61 248 0 8 12 13 30 13 35 0 34-7 14 98l-17 83-329-3-330-3-28-32-28-31-19 20c-25 28-111 68-149 68-57 0-122-30-159-73-19-22-38-37-42-33-5 4-13 24-18 44-13 46-37 53-175 55-205 4-228-37-175-302 30-151 31-173 5-196s-64-12-93 26c-15 21-75 231-77 272 0 4 13 7 29 7 17 0 32 3 34 7 2 5-3 45-12 90l-16 83h-177c-98 0-178-3-177-7 0-5 8-44 18-88 16-74 19-80 44-83 18-2 29-11 32-25 22-98 45-225 45-247 0-41-22-53-85-48l-54 5 6-76c3-42 9-80 13-85 13-14 221-38 270-31 33 5 54 16 83 46l39 39 32-28c41-36 145-66 199-58 64 11 94 31 112 80 21 54 18 96-21 279-35 166-34 171 55 175l61 3v-98c0-152 38-267 117-354 43-48 74-65 142-80 65-14 120 1 170 46l38 35 9-33 10-32 112-3c62-1 112 1 112 6 0 14-56 299-75 380-23 98-19 102 99 102h92l23-135c12-74 25-144 28-155 4-16 0-20-22-20-20 0-25-4-21-17 3-10 10-40 16-68 22-108 2-96 158-93l137 3-4 35c-3 34-2 34 16 18 59-54 221-85 280-55 33 17 63 70 63 110 0 13-14 89-31 168-16 79-33 156-36 170-8 39 29 73 69 65 17-3 40-6 52-6 20 0 21-4 18-84-6-143 38-257 136-348 77-71 151-94 269-85 43 4 90 10 106 13l27 6v-66-66h35 35v455 455h-35-35v-79zm-1759-222c12-12 33-46 47-78 34-73 38-187 8-220-71-79-183 64-174 223 3 53 8 71 23 82 28 20 72 17 96-7zm1592-5c40-39 70-128 71-207 1-61-2-71-23-88-30-25-62-24-95 2-36 28-55 68-72 150-16 78-7 141 24 158 30 18 68 12 95-15z"/>
</g>
</svg>
