<?xml version="1.0" encoding="UTF-8"?>
<!DOCTYPE svg  PUBLIC '-//W3C//DTD SVG 20010904//EN'  'http://www.w3.org/TR/2001/REC-SVG-20010904/DTD/svg10.dtd'>
<svg width="146px" height="138px" version="1.0" viewBox="0 0 1460 1380" xmlns="http://www.w3.org/2000/svg">
<g fill="#f39202">
<path d="m594 1332c-67-44-109-92-130-149-16-46-20-388-4-398 13-8 195 99 233 137l27 27-2 208-3 208-30 3c-22 2-48-8-91-36z"/>
<path d="m771 1333c-15-52-15-692 0-730 6-15 20-38 32-51 33-35 184-124 205-120 16 3 17 30 17 384v381l-30 43c-42 61-138 130-181 130-30 0-34-4-43-37z"/>
<path d="m375 686c-387-222-367-201-373-399-3-70-1-127 2-127 14 0 540 302 663 380 45 29 54 65 51 199-2 72-7 126-13 127-5 2-154-80-330-180z"/>
<path d="m1080 545c0-143 2-157 20-172 20-18 347-213 355-213 3 0 5 54 5 120 0 130-10 169-51 206-19 17-239 161-316 208-10 6-13-27-13-149z"/>
<path d="m710 511c-55-17-230-117-230-130 0-9 198-127 426-255 195-109 261-132 342-116 61 11 114 37 162 79 29 26 33 32 20 41-79 54-645 381-667 385-15 2-39 0-53-4z"/>
<path d="m225 240c-93-55-171-105-173-112-3-16 80-82 129-102 51-21 119-29 166-18 34 8 349 190 341 197-35 28-245 135-265 135-17 0-96-40-198-100z"/>
</g>
</svg>
