<?xml version="1.0" encoding="UTF-8"?>
<!DOCTYPE svg  PUBLIC '-//W3C//DTD SVG 1.1//EN'  'http://www.w3.org/Graphics/SVG/1.1/DTD/svg11.dtd'>
<svg clip-rule="evenodd" fill-rule="evenodd" stroke-linejoin="round" stroke-miterlimit="1.4142" version="1.1" viewBox="0 0 143 134" xml:space="preserve" xmlns="http://www.w3.org/2000/svg"><path d="m76.7 118.3l-0.7-14.8 18.3-18.2 18.2-18.3-18.3-18.3-18.2-18.2v-15.5-15.5l67.5 67.5-33.1 33-33.1 33-0.6-14.7z" fill="#323232" fill-rule="nonzero"/><path d="m33 100.5l-33.5-33.5 33.8-33.8 33.7-33.7v32.3l-18.2 17.6-18.3 17.6 9.5 9.5 13.5-13.5c7.4-7.4 13.6-13.2 13.7-13 0.2 0.3 3.7 4 7.8 8.3l7.4 7.7-13.5 12.9-13.4 12.9 11.6 11.8-0.3 15.2-0.3 15.2-33.5-33.5z" fill="#f1841a" fill-rule="nonzero"/></svg>
