<?xml version="1.0" encoding="UTF-8"?>
<!DOCTYPE svg  PUBLIC '-//W3C//DTD SVG 20010904//EN'  'http://www.w3.org/TR/2001/REC-SVG-20010904/DTD/svg10.dtd'>
<svg width="400px" height="201px" version="1.0" viewBox="0 0 4000 2010" xmlns="http://www.w3.org/2000/svg">
<g fill="#20773b">
<path d="m940 1994c-30-8-79-29-108-47l-53-33-67 33c-89 44-145 53-327 53-186 0-238-13-299-73-63-64-66-83-66-434v-309l25-51c15-28 32-57 40-63 12-10 10-18-11-49-46-71-67-148-72-267-5-133 7-200 55-295 46-92 117-163 207-205 163-77 357-64 503 33l52 34 33-37c49-56 97-74 198-74s148 18 201 77l36 40 29-25c89-74 255-114 381-92 38 6 94 22 126 35l58 23 56-29c112-59 246-29 316 72 15 21 16 21 54-22 50-55 102-79 179-79 44 0 73 6 107 23l46 24 11-33c14-41 49-64 96-64 22 0 46-7 57-18 12-11 35-17 66-17 36 0 57-8 94-34 90-61 160-84 282-89 98-4 118-2 181 20 87 31 171 85 225 146 23 26 64 94 91 152 95 198 144 251 207 227 42-16 51-2 51 85 0 131-79 260-175 287-51 14-129 13-180-3-38-12-43-11-82 16-62 42-141 77-192 84l-43 7 32 25c41 32 80 114 80 168 0 61-19 104-113 260l-85 141-4 114c-5 156-35 211-138 258-101 46-233 12-288-73-14-22-27-43-29-45-1-2-25 14-54 34-93 69-161 87-343 93-182 5-244-5-302-48l-38-28-49 25c-75 37-166 53-318 53-143 0-212-13-258-49-23-18-25-18-80 10-31 15-76 33-101 38-65 15-236 12-300-5zm289-160c66-19 122-74 145-139 13-39 16-91 16-271 0-202-2-224-19-245-26-32-86-32-112 0-17 21-19 43-19 238 0 242-6 269-65 297-41 20-105 20-151 1-58-24-64-53-64-299 0-189-2-216-17-235-27-32-73-37-106-11l-27 21v237c0 229 1 239 24 288 26 56 71 96 132 118 53 20 197 20 263 0zm1826-9c24-23 25-30 25-139v-114l100-165c55-90 100-173 100-183 0-49-65-88-108-65-10 5-51 71-91 146-40 74-74 135-76 135s-36-61-76-135c-56-104-79-137-101-146-56-23-119 30-99 83 5 13 52 95 105 183l96 160v113c0 99 2 114 20 132 28 28 75 26 105-5zm-2423-18c85-42 122-116 104-211-8-42-49-94-84-107l-26-10 37-30c87-71 68-202-37-254-48-24-59-25-228-25-165 0-179 1-198 20s-20 33-20 306c0 183 4 292 11 305 18 34 48 39 219 36 158-2 167-3 222-30zm1276 4c71-32 137-106 158-178 9-32 16-90 15-142 0-144-47-238-144-289-50-26-59-27-229-30-168-3-177-3-197 17s-21 31-21 307c0 183 4 292 11 305 18 34 48 39 204 36 132-3 156-6 203-26zm653 5c68-25 114-69 151-144 31-63 33-73 33-172-1-133-24-200-91-259-70-61-112-71-300-71h-163l-20 26c-20 26-21 39-21 300 0 155 4 284 10 299 5 14 20 30 32 35 38 16 316 6 369-14zm-1981-762c76-22 134-65 159-117 12-24 21-51 21-60 0-28-37-57-73-57-28 0-41 9-80 55-54 62-93 78-157 64-57-13-82-32-111-81-21-37-24-56-24-138 0-79 4-102 23-137 31-59 84-93 145-93 60 0 97 18 128 64 42 62 102 71 135 20 34-52-14-127-112-175-59-29-76-33-148-33-137 0-231 56-288 171-28 58-33 79-36 163-5 114 12 184 58 248 73 101 225 146 360 106zm1217-20c146-71 154-272 14-343-20-10-81-29-136-41-55-13-112-29-127-37-61-30-58-92 7-119 69-29 134-12 197 50 41 40 79 47 110 19 24-21 23-74-1-105-52-65-195-107-303-88-130 24-190 80-196 185-8 124 37 165 235 217 123 32 163 55 163 93 0 59-79 102-162 89-34-6-54-18-97-61-47-48-57-54-90-51-28 2-39 9-49 30-19 39 12 107 65 142 94 62 265 72 370 20zm-923 4c7-13 21-47 31-76l17-53 125 3 125 3 23 64c27 73 35 81 87 81 39 0 68-26 68-62 0-34-210-603-227-616-27-20-127-16-147 7-9 10-66 150-127 310-112 298-119 328-80 351 9 5 33 10 53 10 28 0 41-6 52-22zm1236 2c18-18 20-33 20-150v-130h140 140v130c0 117 2 132 20 150 25 25 86 27 112 3 17-15 18-38 18-325 0-295-1-309-20-328-30-30-83-27-109 6-18 23-21 41-21 130v104h-140-140v-110c0-127-12-150-75-150-22 0-43 8-55 20-19 19-20 33-20 323 0 345 0 347 71 347 26 0 46-7 59-20zm1263-105c84-22 134-51 197-114 82-82 122-169 128-278 4-81-17-205-38-218-4-3-18 3-31 14-29 22-113 71-122 71-4 0-20-27-37-60s-32-60-34-60c-1 0 2 32 9 71l12 71-41 18c-22 9-44 16-48 13-4-2-26-53-49-113-23-61-44-108-46-106s3 57 11 122c9 64 15 119 13 120-1 1-40 9-86 18-53 10-138 16-236 16h-152l8 51c18 113 54 182 132 257 114 107 261 146 410 107zm-466-469c26-23 27-27 16-56-10-27-10-31 3-26 41 16 82-30 70-78-6-25-48-49-71-40-13 6-14 3-4-19 10-21 9-31-4-51-36-54-107-36-107 27-1 29-2 30-12 12-15-26-28-35-55-35-54 0-72 73-27 109 19 15 22 21 11 21-37 0-54 74-23 98 29 24 56 23 80-1l25-25 3 31c2 22 11 35 28 44 33 17 35 17 67-11z"/>
<path d="m330 1630v-90h88c106 0 152 19 165 66 11 39-7 83-43 101-15 8-63 13-117 13h-93v-90z"/>
<path d="m330 1360v-80h89c109 0 141 18 141 80s-32 80-141 80h-89v-80z"/>
<path d="m1640 1506v-218l99 4c94 3 101 5 130 32 47 45 64 102 59 194-5 89-31 148-79 176-19 11-61 19-119 23l-90 6v-217z"/>
<path d="m2308 1714c-5-4-8-101-8-216v-208h88c112 0 148 17 181 83 34 68 34 186 0 254-32 65-69 84-172 90-45 3-85 2-89-3z"/>
<path d="m964 783c3-10 23-70 45-133 35-103 40-112 49-90 12 31 72 225 72 234 0 3-39 6-86 6-77 0-85-2-80-17z"/>
<path d="m3264 826c-54-54-49-61 81-86 64-13 118-20 122-17 15 15-10 77-43 106-28 25-44 31-80 31-39 0-51-5-80-34z"/>
<path d="m3164 696c-18-14-18-16 16-44l35-30-43-12c-23-7-42-17-42-22 0-19 50-58 75-58 71 0 117 63 91 125-8 18-23 38-34 44-29 15-75 14-98-3z"/>
<path d="m3383 658c-29-14-29-19 2-48 32-30 31-37-5-45-41-9-46-22-19-51 16-17 33-24 61-24 110 0 121 157 13 175-17 2-40-1-52-7z"/>
<path d="m2808 366c-51-25-20-106 36-92 33 8 49 38 37 69-11 29-41 39-73 23z"/>
</g>
<g fill="#f0f6f2">
<path d="m966 1834c-61-22-106-62-132-118-23-49-24-59-24-288v-237l27-21c33-26 79-21 106 11 15 19 17 46 17 235 0 246 6 275 64 299 46 19 110 19 151-1 59-28 65-55 65-297 0-195 2-217 19-238 26-32 86-32 112 0 17 21 19 43 19 245 0 180-3 232-16 271-23 65-79 120-145 139-66 20-210 20-263 0z"/>
<path d="m2950 1830c-18-18-20-33-20-132v-113l-96-160c-53-88-100-170-105-183-20-53 43-106 99-83 22 9 45 42 101 146 40 74 74 135 76 135s36-61 76-135c40-75 81-141 91-146 43-23 108 16 108 65 0 10-45 93-100 183l-100 165v114c0 109-1 116-25 139-30 31-77 33-105 5z"/>
<path d="m223 1830c-12-5-26-18-32-29-7-13-11-122-11-305 0-273 1-287 20-306s33-20 198-20c169 0 180 1 228 25 105 52 124 183 37 254l-37 30 26 10c35 13 76 65 84 107 18 95-19 169-104 211-55 27-64 28-222 30-91 2-175-2-187-7zm317-123c36-18 54-62 43-101-13-47-59-66-165-66h-88v90 90h93c54 0 102-5 117-13zm-6-288c20-16 26-29 26-59 0-62-32-80-141-80h-89v80 80h89c74 0 92-3 115-21z"/>
<path d="m1533 1830c-12-5-26-18-32-29-7-13-11-122-11-305 0-276 1-287 21-307s29-20 197-17c170 3 179 4 229 30 97 51 144 145 144 289 1 118-19 184-76 247-72 80-119 95-300 99-82 2-160-1-172-7zm316-136c48-28 74-87 79-176 5-92-12-149-59-194-29-27-36-29-130-32l-99-4v218 217l90-6c58-4 100-12 119-23z"/>
<path d="m2192 1830c-12-5-27-21-32-35-6-15-10-144-10-299 0-261 1-274 21-300l20-26h163c188 0 230 10 300 71 67 59 90 126 91 259 0 99-2 109-33 172-37 75-83 119-151 144-53 20-331 30-369 14zm320-137c52-29 81-97 81-193 0-63-5-89-24-127-33-66-69-83-181-83h-88v208c0 115 3 212 8 216 14 15 170-1 204-21z"/>
<path d="m380 1054c-155-41-226-157-218-354 3-84 8-105 36-163 57-115 151-171 288-171 72 0 89 4 148 33 98 48 146 123 112 175-33 51-93 42-135-20-68-99-214-83-273 29-19 35-23 58-23 137 0 82 3 101 24 138 29 49 54 68 111 81 64 14 103-2 157-64 39-46 52-55 80-55 36 0 73 29 73 57 0 36-43 104-84 132-83 58-189 74-296 45z"/>
<path d="m1520 1055c-79-23-128-58-151-111-17-38-18-48-7-72 10-21 21-28 49-30 33-3 43 3 90 51 43 43 63 55 97 61 83 13 162-30 162-89 0-38-40-61-163-93-198-52-243-93-235-217 6-105 66-161 196-185 108-19 251 23 303 88 24 31 25 84 1 105-31 28-69 21-110-19-63-62-128-79-197-50-65 27-68 89-7 119 15 8 72 24 127 37 55 12 116 31 136 41 75 38 107 102 96 195-12 107-100 171-248 179-58 4-101 0-139-10z"/>
<path d="m769 1050c-39-23-32-53 80-351 61-160 118-300 127-310 20-23 120-27 147-7 17 13 227 582 227 616 0 36-29 62-68 62-52 0-60-8-87-81l-23-64-125-3-125-3-17 53c-27 83-40 98-83 98-20 0-44-5-53-10zm361-256c0-9-60-203-72-234-9-22-14-13-49 90-22 63-42 123-45 133-5 15 3 17 80 17 47 0 86-3 86-6z"/>
<path d="m1996 1038c-14-19-16-67-16-325 0-290 1-304 20-323 12-12 33-20 55-20 63 0 75 23 75 150v110h140 140v-104c0-89 3-107 21-130 26-33 79-36 109-6 19 19 20 33 20 328 0 287-1 310-18 325-26 24-87 22-112-3-18-18-20-33-20-150v-130h-140-140v130c0 117-2 132-20 150-29 29-94 27-114-2z"/>
<path d="m3150 936c-70-20-129-54-187-108-78-75-114-144-132-257l-8-51h152c98 0 183-6 236-16 46-9 85-17 86-18 2-1-4-56-13-120-8-65-13-120-11-122s23 45 46 106c23 60 45 111 49 113 4 3 26-4 48-13l41-18-12-71c-7-39-10-71-9-71 2 0 17 27 34 60s33 60 37 60c9 0 93-49 122-71 13-11 27-17 31-14s16 34 25 69c27 101 18 215-25 303-38 77-123 169-188 202-95 48-226 63-322 37zm274-107c33-29 58-91 43-106-4-3-58 4-122 17-130 25-135 32-81 86 29 29 41 34 80 34 36 0 52-6 80-31zm-162-130c11-6 26-26 34-44 26-62-20-125-91-125-25 0-75 39-75 58 0 5 19 15 42 22l43 12-35 30c-34 28-34 30-16 44 23 17 69 18 98 3zm225-61c32-30 32-90-2-123-33-34-93-34-124-1-27 29-22 42 19 51 36 8 37 15 5 45-31 29-31 34-2 48 30 15 76 6 104-20z"/>
<path d="m2840 477c-17-9-26-22-28-44l-3-31-25 25c-24 24-51 25-80 1-31-24-14-98 23-98 11 0 8-6-11-21-45-36-27-109 27-109 27 0 40 9 55 35 10 18 11 17 12-12 0-63 71-81 107-27 13 20 14 30 4 51-10 22-9 25 4 19 23-9 65 15 71 40 12 48-29 94-70 78-13-5-13-1-3 26 11 29 10 33-16 56-32 28-34 28-67 11zm41-134c12-31-4-61-37-69-56-14-87 67-36 92 32 16 62 6 73-23z"/>
</g>
</svg>
