<?xml version="1.0" encoding="UTF-8"?>
<!DOCTYPE svg  PUBLIC '-//W3C//DTD SVG 1.1//EN'  'http://www.w3.org/Graphics/SVG/1.1/DTD/svg11.dtd'>
<svg clip-rule="evenodd" stroke-linejoin="round" stroke-miterlimit="1.4142" version="1.1" viewBox="0 0 188 69" xml:space="preserve" xmlns="http://www.w3.org/2000/svg"><path d="m131.04 1.028c-10.67 5.672-1.645 21.57 8.912 15.944 10.649-5.675 1.299-21.372-8.912-15.944m-25.044 0.972c-3.177 17.104-4.816 34.737-7 52h11c0.359-17.411 5.856-34.584 6-52h-10z" fill="#007b5b"/><path d="m134.3 6.176c-3.28 1.635-1.072 7.376 2.394 5.648 3.28-1.635 1.072-7.376-2.394-5.648z" fill="#fff"/><path d="m55.437 7.032c-4.676 3.179 0.564 10.037 5.126 6.936 4.676-3.179-0.564-10.037-5.126-6.936m11.881 0.011c-4.851 3.088 0.73 10.249 5.079 6.925 4.102-3.137-0.544-9.811-5.079-6.925m18.682 2.957l-1 11c-2.645 0.077-4.266-3e-3 -6 2-2.981-2.587-9.975-3.785-11 1-2.538-1.935-4.758-3.375-8-3.811-21.745-2.926-27.101 34.06-5 33.792 3.28-0.039 6.004-0.717 9-1.981 2.431 2.782 6.491 2 10 2 1.129-8.931 2.925-17.986 3-27 2.418 0.722 4.472 0.948 7 1-1.087 8.599-2.821 17.327-3 26h10c1.568-8.439 2.929-17.414 3-26h7l1-7h-7c1.084-3.569 1.531-7.293 2-11h-11m-69 13c-2.431-2.782-6.491-2-10-2-0.87 11.024-3.525 21.94-4 33 2.811 0 7.829 0.904 9.821-1.603 3.841-4.835 1.013-13.837 4.269-19.382 2.535-4.318 9.092-7.729 11.217-0.995 1.087 3.444-0.401 8.474-0.883 11.98-0.462 3.347-0.806 6.675-1.424 10h11c0.203-9.82 8.294-32.439-7-33.894-1.64-0.156-3.366-0.131-5 0.082-2.884 0.376-5.396 1.597-8 2.812m120 29c2.431 2.782 6.491 2 10 2 1.375-10.877 3.774-22.039 4-33-3.509 0-7.569-0.782-10 2-4.932-2.009-9.561-3.769-15-2.656-11.633 2.381-16.83 21.801-8.581 30.262 4.924 5.05 13.745 3.857 19.581 1.394m28-28c0.986-1.479 1-1.203 1-3h-10c-0.87 11.024-3.525 21.94-4 33 2.811 0 7.829 0.904 9.821-1.603 3.841-4.835 1.013-13.837 4.269-19.382 2.535-4.318 9.092-7.729 11.217-0.995 1.087 3.444-0.4 8.474-0.883 11.98-0.461 3.347-0.806 6.675-1.424 10h11c0.214-10.344 8.502-33.204-8-33.953-1.992-0.09-4.062 0.012-5.998 0.509-2.594 0.667-4.764 2.038-7.002 3.444z" fill="#007b5b"/><path d="m16 23l1 1-1-1m42.039 4.758c-9.505 2.151-8.56 21.472 1.946 18.395 8.583-2.514 8.602-20.782-1.946-18.395m72.976-0.077c-8.91 1.614-9.236 20.116 0.985 18.696 9.571-1.329 9.501-20.595-0.985-18.696z" fill="#fff"/><rect y="61" width="185" height="8" fill="#c1272c"/></svg>