<?xml version="1.0" encoding="iso-8859-1"?>
<!-- Generator: Adobe Illustrator 19.0.0, SVG Export Plug-In . SVG Version: 6.00 Build 0)  -->
<svg xmlns="http://www.w3.org/2000/svg" xmlns:xlink="http://www.w3.org/1999/xlink" version="1.1" id="Capa_1" x="0px" y="0px" viewBox="0 0 512 512" style="enable-background:new 0 0 512 512;" xml:space="preserve" width="512px" height="512px">
<g>
	<g>
		<path d="M380.651,394.694l-0.912-1.363c45.316-12.299,80.709-48.874,91.304-94.852c-4.27-3.308-8.811-6.154-13.572-8.53    c-4.601-2.295-9.402-4.14-14.354-5.533c-5.633-1.564-11.477-2.546-17.441-2.887c-21.871-1.273-42.92,6.054-59.279,20.618    c-16.368,14.564-26.071,34.631-27.344,56.502c-0.17,2.987-0.18,5.984-0.03,8.961h0.01c0.251,5.112,0.992,10.184,2.195,15.135    c0.391,1.664,0.852,3.318,1.363,4.952c0.361,1.173,0.752,2.335,1.173,3.498c0.742,2.075,1.574,4.13,2.486,6.134    c0.07,0.15,0.14,0.311,0.21,0.461l1.995,2.837l15.975,23.922h-31.654l-9.921-14.841l-7.959-11.928l-2.646-3.959    c-1.012-3.649-1.844-7.337-2.496-11.076c-0.862-4.962-1.393-9.983-1.574-15.035c-0.15-3.608-0.11-7.237,0.1-10.855    c1.744-30.08,15.105-57.685,37.618-77.732c22.513-20.037,51.46-30.12,81.571-28.366c5.172,0.301,10.264,0.942,15.276,1.924    c5.393,1.042,10.675,2.486,15.817,4.3v0.01c5.373,1.884,10.585,4.19,15.617,6.886c-1.012-22.412-7.868-44.033-19.796-62.807    c11.106-6.074,20.939-14.494,28.647-24.698c0.189-0.25,0.369-0.498,0.557-0.747l9.664,7.707L512,159.823l-14.677-11.705    c2.776-9.262,4.07-18.974,3.749-28.747c-1.554-47.04-39.603-85.069-86.643-86.583c-30.892-1.022-59.76,13.682-77.141,39.282    c-10.224,15.055-92.737,114.809-177.976,216.998h79.235l63.238-73.322l22.773,19.646l-72.239,83.746H134.214    c-41.477,49.646-81.972,97.959-113.445,135.417L0,479.262h62.075l90.863-106.279l22.853,19.536l-74.154,86.743h62.486    l71.758-81.481h42.85l17.879,26.769h-18.78v30.07h217.923v-30.07h-95.16L380.651,394.694z M398.412,118.889    c0-8.129,6.585-14.714,14.714-14.714h0.01c8.129,0,14.724,6.585,14.724,14.714v0.02c0,8.129-6.595,14.714-14.724,14.714h-0.01    c-8.129,0-14.714-6.585-14.714-14.714V118.889z" fill="#FFFFFF"/>
	</g>
</g>
<g>
</g>
<g>
</g>
<g>
</g>
<g>
</g>
<g>
</g>
<g>
</g>
<g>
</g>
<g>
</g>
<g>
</g>
<g>
</g>
<g>
</g>
<g>
</g>
<g>
</g>
<g>
</g>
<g>
</g>
</svg>
