<?xml version="1.0"?>
<svg xmlns="http://www.w3.org/2000/svg" height="512px" viewBox="-98 1 511 511.999" width="512px"><path d="m163.386719 0h-10.019531c-84.292969 0-152.867188 68.574219-152.867188 152.867188v296.839843l9.957031-5.054687c35.644531-21.777344 56.910157-59.640625 56.910157-101.386719v-56.515625c9.308593 6.585938 19.359374 12.1875 30 16.65625v39.855469c0 26.0625-6.84375 51.710937-19.789063 74.171875-12.546875 21.769531-30.546875 40.15625-52.054687 53.167968-.320313.195313-.648438.375-.980469.542969l-20.1875 10.242188 11.527343.609375c65.292969-.207032 118.347657-53.390625 118.347657-118.730469v-49.453125c7.839843 1.203125 15.863281 1.828125 24.03125 1.828125h.226562c1.921875 0 3.835938-.046875 5.742188-.117187v47.742187c0 82.011719-66.71875 148.734375-148.730469 148.734375h156.707031c79.425781 0 144.042969-64.617188 144.042969-144.046875v-215.089844c0-84.289062-68.574219-152.863281-152.863281-152.863281zm122.863281 157.875c0 70.449219-57.3125 127.765625-127.761719 127.765625h-.226562c-70.445313 0-127.761719-57.3125-127.761719-127.820313 0-31.117187 25.316406-56.4375 56.4375-56.4375s56.4375 25.316407 56.4375 56.4375c0 8.285157 6.714844 15 15 15s15-6.714843 15-15c0-31.121093 25.320312-56.4375 56.4375-56.4375 31.121094 0 56.4375 25.316407 56.4375 56.4375zm0 0" fill="#FFFFFF"/><path d="m108.457031 157.820312c0 11.886719-9.632812 21.523438-21.519531 21.523438s-21.519531-9.636719-21.519531-21.523438c0-11.886718 9.632812-21.519531 21.519531-21.519531s21.519531 9.632813 21.519531 21.519531zm0 0" fill="#FFFFFF"/><path d="m251.335938 157.820312c0 11.886719-9.636719 21.523438-21.523438 21.523438-11.882812 0-21.519531-9.636719-21.519531-21.523438 0-11.886718 9.636719-21.519531 21.519531-21.519531 11.886719 0 21.523438 9.632813 21.523438 21.519531zm0 0" fill="#FFFFFF"/></svg>
