<?xml version="1.0" encoding="UTF-8"?>
<!DOCTYPE svg  PUBLIC '-//W3C//DTD SVG 20010904//EN'  'http://www.w3.org/TR/2001/REC-SVG-20010904/DTD/svg10.dtd'>
<svg width="184px" height="215px" version="1.0" viewBox="0 0 1840 2150" xmlns="http://www.w3.org/2000/svg">
<g fill="#8e3996">
<path d="m1475 2126c-27-13-62-36-76-52-32-35-749-1131-749-1145 0-5 113-9 289-9 282 0 289 0 321-22 51-36 70-80 70-168 0-92-22-145-76-186l-37-29-511-5-511-5-48-24c-94-47-157-159-143-259 13-94 79-176 167-207 60-21 1021-22 1121-1 198 42 382 187 472 371 57 117 70 180 70 350-1 135-3 158-27 230-15 44-43 108-64 143-34 57-145 176-201 214l-24 16 142 217c78 119 148 232 157 253 20 48 19 137-2 190-21 52-99 124-153 140-63 19-131 15-187-12z"/>
</g>
</svg>
