<?xml version="1.0" encoding="UTF-8"?>
<!DOCTYPE svg  PUBLIC '-//W3C//DTD SVG 1.1//EN'  'http://www.w3.org/Graphics/SVG/1.1/DTD/svg11.dtd'>
<svg clip-rule="evenodd" fill-rule="evenodd" stroke-linejoin="round" stroke-miterlimit="1.4142" version="1.1" viewBox="0 0 84 56" xml:space="preserve" xmlns="http://www.w3.org/2000/svg"><g fill="#167945" fill-rule="nonzero"><path d="m9.5 26.2c-5.9-2-8.5-6-8.5-12.9v-5.3h5c2.8 0 6.4 0.7 7.9 1.5 3.7 1.9 6.3 7.4 5.9 12.8-0.3 4.2-0.3 4.2-4.3 4.4-2.2 0.1-4.9-0.2-6-0.5z"/><path d="m28 19.3c0-6.7 0.4-8.6 2.3-11.3 4-6 7-7.5 15.8-7.9l7.9-0.3v7.2c0 13.1-5.3 18.7-18.5 19.7l-7.5 0.6v-8z"/></g><path d="m37.5 54.2c-2.2-1.1-4.8-2.9-5.8-4-2.3-2.5-4.6-8.7-4.7-12.4 0-2.7 0.2-2.8 5.5-2.8 13.3 0 21.7-4.4 26.7-13.9 2.4-4.5 2.8-6.5 2.8-13.3v-8l5.5 0.4c5.9 0.5 9.4 2.4 12.9 7.2 1.9 2.5 2.1 4.4 2.4 19.2 0.3 15.5 0.2 16.6-1.9 20.4-4.2 7.4-7.2 8.5-24.4 8.8-13 0.2-15.5 0-19-1.6z" fill="#a7ce3b" fill-rule="nonzero"/></svg>