<svg xmlns="http://www.w3.org/2000/svg" viewBox="0 0 37 37" style="fill-rule:evenodd;clip-rule:evenodd;stroke-linejoin:round;stroke-miterlimit:1.41421;"><path d="M16.009 22.576c.031.164.07.326.117.486s.1.315.163.468.132.303.21.448a4.74 4.74 0 0 0 1.875 1.895 5.81 5.81 0 0 0 .439.222c.152.069.31.132.475.191a6.31 6.31 0 0 0 .588.177 7.5 7.5 0 0 0 .635.13c.467.074.939.11 1.412.108a8.37 8.37 0 0 0 3.378-.766 8.88 8.88 0 0 0 .574-.281l.339-.189a5.65 5.65 0 0 0 .406-.257l.054-.038-1-2.946c-.279.179-.569.34-.868.483-.815.42-1.711.659-2.627.7-.132 0-.264-.007-.395-.02a2.7 2.7 0 0 1-.687-.159 2.07 2.07 0 0 1-.29-.136c-.061-.035-.11-.08-.165-.119-.165-.115-.308-.257-.425-.42-.239-.371-.359-.806-.345-1.247h7.424l.068-.209.149-.542.08-.354.069-.389.049-.406c.012-.137.019-.273.019-.407a6.13 6.13 0 0 0-.045-.742c-.074-.68-.302-1.334-.666-1.912-.503-.765-1.252-1.336-2.122-1.621-.513-.175-1.046-.281-1.586-.317l-.606-.022c-.473-.001-.944.046-1.407.141-.334.068-.662.162-.981.28a6.46 6.46 0 0 0-.906.419c-.1.054-.187.117-.28.176l-.279.175c-.452.317-.863.689-1.222 1.109-.363.427-.673.898-.923 1.4a7.75 7.75 0 0 0-.791 3.475c-.001.341.031.681.093 1.016zm4.727-4.186a2.71 2.71 0 0 1 .224-.288 2.18 2.18 0 0 1 1.671-.744c.183-.002.364.032.534.1.149.059.284.151.394.268s.192.255.245.405c.057.164.085.336.084.509a4.27 4.27 0 0 1-.012.257l-.011.154h-3.473c.09-.233.205-.454.344-.661zm15.39-.33c-.011 9.904-8.157 18.05-18.061 18.061a17.77 17.77 0 0 1-1.086-.036l-.294-.022-.82-.081-.287-.036-.941-.156-.124-.022-1.062-.247-.233-.066-.767-.232-.375-.127-.6-.226-.418-.165-.813-.368-.6-.3-.274-.147-.324-.172c-1.025-.668-2.014-1.389-2.964-2.16l.3-.037c1.373-.111 2.714-.468 3.96-1.055l.7.415.171.091a14.54 14.54 0 0 0 1.544.708l.442.166.333.113.582.176.22.062.849.2.118.021.744.122.239.031.659.065.241.018.879.029c8.021 0 14.621-6.6 14.621-14.621s-6.6-14.621-14.621-14.621S3.444 10.04 3.443 18.06a14.68 14.68 0 0 0 .051 1.169c0 .051.007.1.012.154.035.384.085.767.15 1.146l.018.1c.213 1.182.569 2.334 1.062 3.429l.083.183c.144.309.3.611.465.909l.172.3.223.357.482.732h.116a3.95 3.95 0 0 0 1.145-.209 1.4 1.4 0 0 0 .993-1.063l.124-.519.4-2.066.929-4.786H8.254l.693-3.46h1.614l.533-2.459c.769-4.333 4.691-4.9 6.69-4.9a15.57 15.57 0 0 1 1.616.077l-.77 3.743c-.22-.037-.443-.054-.666-.051-.871 0-2.281.153-2.487 1.281l-.506 2.306h4.306c-.049.025-.095.054-.144.081l-.1.051c-.033.019-.055.036-.083.052a7.31 7.31 0 0 0-.462.29c-.025.018-.054.033-.08.05-.011.009-.021.019-.033.027a7.52 7.52 0 0 0-.677.543l-.071.068a7.42 7.42 0 0 0-.53.549l-.1.115a7.47 7.47 0 0 0-.479.641l-.118.187c-.113.181-.22.367-.319.559l-.1.191c-.009.019-.02.037-.029.056h-1.647l-1.045 5.549-.533 2.459c-.085.497-.228.981-.427 1.444a5.28 5.28 0 0 1-3.477 2.933 10.06 10.06 0 0 1-1.012.256l-.486.088-1.288.175c-.035 0-.219.019-.4.032l-.327.024-.267-.274c-.318-.33-.625-.675-.917-1.029a17.98 17.98 0 0 1-1.964-2.931l-.019-.034-.285-.556-.13-.269-.191-.42-.167-.386-.107-.272c-.342-.864-.616-1.754-.82-2.661l-.028-.119-.116-.589-.044-.246-.08-.524-.044-.346-.05-.455-.036-.475-.023-.354L0 18.061C0 8.153 8.153 0 18.061 0s18.061 8.153 18.061 18.061l.004-.001z" fill="#fb9116" fill-rule="nonzero"/></svg>