<?xml version="1.0" encoding="UTF-8"?>
<!DOCTYPE svg  PUBLIC '-//W3C//DTD SVG 20010904//EN'  'http://www.w3.org/TR/2001/REC-SVG-20010904/DTD/svg10.dtd'>
<svg width="250px" height="172px" version="1.0" viewBox="0 0 2500 1720" xmlns="http://www.w3.org/2000/svg">
<g fill="#91c546">
<path d="m1021 1708c-24-6-71-47-155-132-105-106-133-128-212-169-61-31-115-51-163-59-65-11-76-10-139 10-111 36-187 27-255-29-57-47-81-101-81-180 0-70 11-96 63-152 91-99 264-91 343 17 16 22 34 51 39 63 27 70 176 163 274 171 103 8 196-64 211-165 5-38 0-61-36-156-51-135-94-221-166-338-50-80-112-149-134-149-18 0-81-64-101-101-23-45-26-144-6-192 62-147 260-185 374-70 56 55 79 131 64 204-15 69-14 140 4 234 25 129 116 376 157 426 60 73 186 83 267 22 54-42 136-241 180-440 24-104 26-173 10-238-24-95 31-208 124-251 88-41 174-29 247 33 53 46 79 102 80 171 0 93-34 148-127 209-125 80-274 366-313 599-15 94-1 131 67 175 43 27 54 30 113 27 121-7 242-84 296-189 87-173 325-171 415 3 23 44 25 133 6 181-22 51-68 98-116 120-54 24-142 25-193 3-55-24-164-21-235 6-83 31-186 95-236 147-166 172-184 188-223 194-60 10-405 6-443-5z"/>
</g>
</svg>
