<svg xmlns="http://www.w3.org/2000/svg" viewBox="0 0 444 159" style="fill-rule:evenodd;clip-rule:evenodd;stroke-linejoin:round;stroke-miterlimit:1.41421;"><g fill-rule="nonzero"><path d="M430.46 80.068h-17.43c2.695 5.167 4.31 11.39 4.31 18.814 0 12.699-4.458 23.242-12.896 30.5-8.031 6.902-19.27 10.551-32.498 10.551-26.985 0-39.121-13.939-39.121-23.836 0-7.121 5.171-12.1 12.58-12.1 4.7 0 7.344 3.191 10.144 6.566 3.513 4.234 7.491 9.037 16.718 9.037 12.1 0 19.592-10.166 19.592-19.59 0-11.764-7.746-18.787-20.719-18.787-6.812 0-11.033 2.381-14.759 4.484-3.094 1.746-6.026 3.398-9.853 3.398-5.211 0-10.71-2.447-11.854-9.039h-27.062v65.916c0 7.168 5.813 12.982 12.979 12.982h109.868c7.169 0 12.982-5.814 12.982-12.982V80.068H430.46z" fill="url(#A)"/><path d="M122.85 80.075h-21.334c5.597 4.7 8.612 11.936 8.612 21.223 0 12.248-4.555 22.318-13.165 29.133-7.863 6.217-18.673 9.502-31.268 9.502-30.771 0-40.725-19.422-40.725-28.826 0-7.1 5.219-12.256 12.413-12.256 6.992 0 9.284 4.486 11.497 8.824 2.751 5.391 5.601 10.957 17.3 10.957 10.797 0 17.501-6.273 17.501-16.365 0-8.377-4.187-12.537-13.587-13.488l-.249-.025c-4.351-.463-13.184-1.422-13.922-8.678H0v65.914c0 7.172 5.813 12.98 12.984 12.98h109.864c7.174 0 12.987-5.809 12.987-12.98V80.075H122.85z" fill="url(#B)"/><path d="M222.829 119.597c11.06 0 17.663-7.084 17.663-18.945 0-11.941-6.434-18.789-17.663-18.789-10.656 0-17.819 7.551-17.819 18.789-.001 11.861 6.662 18.945 17.819 18.945z" fill="url(#C)"/><path d="M276.697 80.068h-15.559c3.255 5.759 4.84 12.371 4.84 18.972 0 25.223-16.349 40.889-42.663 40.889-40.831 0-45.234-37.031-45.234-52.947l.165-6.914h-24.398v65.916c0 7.168 5.812 12.982 12.984 12.982h109.865c7.17 0 12.984-5.814 12.984-12.982V80.068h-12.984z" fill="url(#D)"/><path d="M430.46 0H320.591c-7.165 0-12.979 5.809-12.979 12.981v67.912h27.243a14.22 14.22 0 0 1-.422-3.401c0-3.56.395-6.284.816-8.69l5.795-34.275c1.121-6.345 5.865-10.95 11.281-10.95h48.252c7.381 0 11.617 4.057 11.617 11.128s-4.116 11.133-11.293 11.133h-40.185l-3.845 21.382c5.557-4.04 13.204-6.327 21.35-6.327 14.255 0 28.571 6.33 35.236 20.001h29.983V12.982A12.98 12.98 0 0 0 430.46 0z" fill="url(#E)"/><path d="M276.697 0H166.832c-7.172 0-12.984 5.809-12.984 12.981v67.912h24.376c.711-20.125 4.979-34.813 13.07-44.654 8.165-9.929 20.011-14.759 36.203-14.759 19.841 0 33.165 11.244 33.165 21.746 0 6.314-4.992 11.456-11.13 11.456-5.483 0-8.513-3.42-11.437-6.723-3.095-3.497-6.296-7.112-12.693-7.112-16.102 0-21.843 15.524-21.843 30.049v.63c7.214-6.31 14.539-9.027 24.095-9.027 17.312 0 28.336 7.873 33.916 18.394h28.111V12.982C289.681 5.809 283.867 0 276.697 0z" fill="url(#F)"/><path d="M122.85.007H12.986C5.815.007.002 5.82.002 12.987v67.912h56.041c-.11-.562-.19-1.153-.19-1.804 0-9.055 5.475-11.113 14.931-11.611 7.277-.438 11.286-4.542 11.286-11.551 0-9.708-8.13-13.157-15.087-13.157-10.203 0-13.364 5.155-16.414 10.146-2.466 4.028-5.014 8.189-11.254 8.189-7.371 0-11.775-3.979-11.775-10.648 0-19.991 23.349-28.987 39.926-28.987 28.845 0 39.125 16.635 39.125 32.202 0 9.723-4.109 17.203-12.23 22.262 3.146 1.158 5.792 2.86 8.03 4.959h33.447V12.988c0-7.168-5.814-12.981-12.988-12.981z" fill="url(#G)"/></g><defs><linearGradient id="A" x1="375.528" y1="80.069" x2="375.528" y2="158.967" gradientUnits="userSpaceOnUse"><stop offset="0" stop-color="#5e3d7f"/><stop offset="1" stop-color="#46166b"/></linearGradient><linearGradient id="B" x1="67.92" y1="80.075" x2="67.92" y2="158.971" gradientUnits="userSpaceOnUse"><stop offset="0" stop-color="#5e3d7f"/><stop offset="1" stop-color="#46166b"/></linearGradient><linearGradient id="C" x1="222.751" y1="81.863" x2="222.751" y2="119.597" gradientUnits="userSpaceOnUse"><stop offset="0" stop-color="#5e3d7f"/><stop offset="1" stop-color="#46166b"/></linearGradient><linearGradient id="D" x1="221.764" y1="80.069" x2="221.764" y2="158.967" gradientUnits="userSpaceOnUse"><stop offset="0" stop-color="#5e3d7f"/><stop offset="1" stop-color="#46166b"/></linearGradient><linearGradient id="E" x1="375.528" y1="0" x2="375.528" y2="80.895" gradientUnits="userSpaceOnUse"><stop offset="0" stop-color="#6b4f8b"/><stop offset="1" stop-color="#46166b"/></linearGradient><linearGradient id="F" x1="221.764" y1="0" x2="221.764" y2="80.895" gradientUnits="userSpaceOnUse"><stop offset="0" stop-color="#6b4f8b"/><stop offset="1" stop-color="#46166b"/></linearGradient><linearGradient id="G" x1="67.92" y1=".007" x2="67.92" y2="80.9" gradientUnits="userSpaceOnUse"><stop offset="0" stop-color="#6b4f8b"/><stop offset="1" stop-color="#46166b"/></linearGradient></defs></svg>