<?xml version="1.0" encoding="UTF-8"?>
<!DOCTYPE svg  PUBLIC '-//W3C//DTD SVG 20010904//EN'  'http://www.w3.org/TR/2001/REC-SVG-20010904/DTD/svg10.dtd'>
<svg width="281px" height="239px" version="1.0" viewBox="0 0 2810 2390" xmlns="http://www.w3.org/2000/svg">
<g fill="#3fa6d3">
<path d="m0 2381c0-5 50-142 111-303s136-363 168-448c205-549 353-936 360-943 8-8 530-31 538-23 5 5-19 76-286 864-97 288-126 384-116 388 7 3 271 4 586 1 501-3 582-6 639-21 97-25 166-71 208-136 32-50 36-62 36-127 1-63-2-76-29-114-19-26-52-55-89-75-93-51-169-67-360-72l-168-4-38-82c-42-92-78-169-116-254-15-31-29-61-31-65-3-5 122-7 278-6l284 3 72-31c87-37 143-79 186-142 28-40 32-54 32-111 0-75-17-105-86-152-86-58-92-58-1088-58-501 0-911-2-911-5s43-58 95-122l94-116-35-41c-19-23-62-74-95-114l-60-72h928c546 0 957 4 998 10 416 58 680 282 702 597 13 176-56 337-207 485l-79 76 27 18c60 39 169 163 200 225 45 93 53 124 59 224 5 73 1 107-16 174-74 296-285 469-671 554-92 20-125 21-1107 24-656 3-1013 0-1013-6z"/>
</g>
</svg>
