<?xml version="1.0" encoding="UTF-8"?>
<!DOCTYPE svg  PUBLIC '-//W3C//DTD SVG 20010904//EN'  'http://www.w3.org/TR/2001/REC-SVG-20010904/DTD/svg10.dtd'>
<svg width="180px" height="180px" version="1.0" viewBox="0 0 1800 1800" xmlns="http://www.w3.org/2000/svg">
<g fill="#1cae5d">
<path d="m739 1776c-97-34-134-64-347-277l-193-193 178-178 178-178 352 352 353 353-37 32c-47 40-121 80-182 99-75 23-224 18-302-10z"/>
<path d="m1127 1422l-177-177 353-353 354-353 35 43c77 94 108 185 108 318 0 188-30 240-284 498-109 111-202 202-205 202-4 0-86-80-184-178z"/>
<path d="m106 1209c-70-82-106-187-106-311 0-101 28-197 80-274 33-49 397-424 411-424 4 0 87 79 185 176l176 177-348 348c-192 192-352 349-356 349-3 0-22-19-42-41z"/>
<path d="m898 495c-192-192-348-353-348-357 0-15 153-107 204-122 68-20 224-21 287-2 108 33 149 64 357 269 111 110 202 203 202 207 0 6-347 355-353 355-1 0-158-157-349-350z"/>
</g>
</svg>
