<?xml version="1.0" encoding="UTF-8"?>
<!DOCTYPE svg  PUBLIC '-//W3C//DTD SVG 20010904//EN'  'http://www.w3.org/TR/2001/REC-SVG-20010904/DTD/svg10.dtd'>
<svg width="414px" height="414px" version="1.0" viewBox="0 0 4140 4140" xmlns="http://www.w3.org/2000/svg">
<g fill="#273c60">
<path d="m2415 3321c-44-15-133-47-197-71l-117-42-268 66c-147 36-288 66-312 66-69 0-120-21-173-70-45-42-64-79-284-550-129-278-251-539-271-580-165-350-172-377-138-481 31-92 70-120 345-248 558-259 1125-524 1280-597 159-75 168-78 240-78 59 0 84 4 117 21 91 49 73 15 649 1255 109 236 114 249 114 312 0 79-24 136-78 188-20 19-127 101-238 181-111 81-206 152-212 160-6 7-38 88-71 180-34 92-67 181-76 196-33 65-130 121-207 121-13 0-59-13-103-29zm-601-213l291-71 105 37c58 21 148 53 200 72 103 37 141 42 159 20 6-8 45-105 86-216 40-111 77-206 82-210 4-4 114-84 244-178 215-156 259-196 259-233 0-10-15-17-135-59-44-16-118-43-165-60-47-18-96-35-110-40s-63-23-110-40-96-36-110-40c-14-5-54-20-90-33s-102-38-148-55c-58-22-84-27-87-19-77 221-97 255-162 283-61 26-116 16-296-55-23-9-29-8-33 7-6 16-15 43-64 177-11 30-29 80-40 110s-29 80-40 110-29 80-40 110-29 80-40 110-29 79-39 108c-11 28-31 82-45 120-14 37-26 73-26 81 0 12 33 34 54 35 5 1 140-31 300-71zm-245-499c83-229 151-420 151-425 0-9-25-19-285-114-30-11-80-29-110-40s-80-29-110-40-81-30-112-41c-32-12-83-30-113-41s-72-27-93-36c-20-8-40-13-43-10s9 37 27 74c151 325 180 388 204 439 13 28 83 178 155 335 73 157 139 301 148 320 13 31 15 33 22 15 4-11 75-207 159-436zm1631-392c0-4-189-408-292-627-25-52-59-124-76-160-16-36-52-112-80-170-27-58-62-133-78-167-15-35-32-63-36-63s-11 15-17 33c-5 17-21 64-36 102-15 39-33 88-40 110-8 22-26 72-40 110-15 39-33 88-40 110-8 22-26 72-40 110-27 71-46 124-84 229-11 33-18 62-15 65 5 6 851 318 867 320 4 1 7-1 7-2zm-1085-40c21-18 71-144 250-637 204-559 222-615 207-627-30-23-79-14-179 33-54 25-125 59-158 74-58 27-152 71-300 140-299 139-348 163-425 198-36 16-105 49-155 72-49 23-117 55-150 70s-100 47-150 70c-49 23-117 55-150 70s-67 36-76 46c-24 28-32 61-17 70 40 25 1209 443 1240 443 25 1 46-7 63-22z"/>
</g>
<g fill="#5579bc">
<path d="m1890 4134c-14-2-65-9-115-15-347-42-741-217-1024-453-944-789-1005-2209-132-3073 388-384 900-593 1454-593 239 0 436 31 652 101 744 244 1289 897 1400 1681 20 138 19 436-1 579-123 886-809 1594-1694 1749-92 16-177 23-320 25-107 2-206 2-220-1zm695-795c49-12 118-66 140-110 9-15 42-104 76-196 33-92 65-173 71-180 6-8 101-79 212-160 111-80 218-162 238-181 54-52 78-109 78-188 0-63-5-76-114-312-576-1240-558-1206-649-1255-33-17-58-21-117-21-72 0-81 3-240 78-155 73-722 338-1280 597-275 128-314 156-345 248-34 104-27 131 138 481 20 41 142 302 271 580 220 471 239 508 284 550 53 49 104 70 173 70 24 0 165-30 312-66l268-66 117 42c302 111 291 108 367 89z"/>
</g>
<g fill="#bec7da">
<path d="m1493 3169c-38-11-39-15-16-80 17-47 18-48 68-54 374-49 918-272 1305-536 131-89 266-201 263-217-3-11 103 23 121 39 5 5 4 20-3 37-11 27-132 121-452 351l-51 37-74 204c-41 112-79 209-86 217-9 11-17 1-38-49-15-35-41-93-58-130l-31-67-73 30c-88 36-207 73-343 104-55 13-183 44-285 69-102 26-192 48-200 50s-30 0-47-5z"/>
<path d="m1366 2979c-19-41-80-171-135-289s-97-218-93-221c4-4 131-64 282-135 151-70 281-131 288-137 7-5-5 39-27 99-121 337-272 748-276 753-3 2-20-29-39-70z"/>
<path d="m2760 2060c-239-87-429-159-422-160 8 0 107-43 220-96 114-53 244-114 288-134l82-38 133 286c73 158 134 290 136 295 5 10 49 25-437-153z"/>
<path d="m1478 2002c-296-108-536-198-534-199 2-2 233 58 515 132 281 74 521 135 534 135 63 0 70-12 312-528 127-269 231-489 233-488 1 2-88 250-197 552-218 597-217 595-289 593-21 0-266-85-574-197z"/>
</g>
<g fill="#f2f5fa">
<path d="m2470 3165c-14-8-32-15-40-15s-33-9-55-20-47-20-55-20-33-9-55-20-47-20-55-20-33-9-55-19l-39-19 44-12c70-18 139-41 213-71l68-28 35 77c55 118 74 163 74 173 0 14-52 10-80-6z"/>
<path d="m1504 3024c5-11 14-37 21-59s25-71 40-110c14-38 32-88 40-110 7-22 25-71 40-110 14-38 32-88 40-110 7-22 25-71 40-110 14-38 32-88 39-110 27-82 37-95 65-88 14 3 42 12 61 20s63 23 97 34c54 17 69 18 105 8 64-18 125-81 145-149 8-30 19-59 23-65 5-5 12-26 17-45 8-30 14-35 36-33 14 1 41 8 59 16 31 13 67 27 203 76 31 11 80 29 110 40 31 11 80 29 110 40 31 11 80 29 110 40 239 87 221 78 199 102-11 12-57 51-104 89-393 311-985 573-1459 646-40 6-43 5-37-12z"/>
<path d="m1114 2432c-14-34-40-89-124-267-16-33-47-100-70-150-22-49-47-103-56-119-8-16-13-31-10-33 2-2 21 3 42 12 22 9 57 23 79 30s72 25 110 40c39 14 88 32 110 40 22 7 72 25 110 40 39 14 88 32 110 40 22 7 72 25 110 40 39 14 86 31 105 37 19 5 48 17 64 25 24 12 26 17 15 28-8 7-99 52-204 100-104 49-232 108-283 132l-93 43-15-38z"/>
<path d="m1440 1931c-665-178-630-167-630-192 0-28 36-76 63-85 20-6 76-31 262-119 39-18 111-52 160-75 50-23 117-54 150-70 33-15 89-42 125-58 81-37 225-105 305-142 33-15 101-47 150-70 50-23 124-58 165-77s104-48 140-65 88-41 116-54c56-26 94-30 123-12 15 9 17 17 10 37-16 45-25 64-289 623-232 494-235 499-305 497-16-1-262-63-545-138z"/>
<path d="m2320 1894c0-3 6-20 14-37 12-30 26-67 75-202 11-31 29-80 40-110 11-31 29-80 40-110 11-31 29-80 40-110 11-31 29-80 40-110 11-31 29-79 41-108 11-29 20-58 20-65 0-23 18-12 30 21 7 17 33 75 58 127 24 52 59 129 78 170s42 89 51 105c21 40 74 168 71 171-2 1-130 61-285 133-257 120-313 142-313 125z"/>
</g>
</svg>