<svg xmlns="http://www.w3.org/2000/svg" viewBox="0 0 130 109" style="fill-rule:evenodd;clip-rule:evenodd;stroke-linejoin:round;stroke-miterlimit:1.41421;"><path d="M123.967 14.162c0-6.492-.254-9.719 1.136-14.162l-7.556.493-15.222.757-6.875.213-.04.482-29.89 67.498L51.35 1.945l.04-.482-17.983.127-17.284-.127-3.576 6.404h1.376c4.745 0 6.652 1.006 7.194 3.77.078.351.116.828.136 1.398.022 1.162-.091 2.378-.335 3.648L7.435 83.972C5.73 92.623 2.943 102.798 0 105.752l.452 1.13 10.38-.307 10.32.307c-.93-4.899.188-13.92 1.138-19.369l9.035-48.721h.482l8.745 42.618c2.05 8.73 4.068 14.02 10.383 19.98 4.138 3.903 9.712 5.973 15.06 7.253L96.2 38.793h.482l.735 43.372c.186 11.162-.04 19.19-1.16 24.655l6.711-.25h19.672l6.445.25-1.527-5.652c-.925-3.893-1.973-10.543-1.998-18.378l-1.593-68.628z" fill="#e32400"/></svg>