<?xml version="1.0" encoding="UTF-8"?>
<!DOCTYPE svg  PUBLIC '-//W3C//DTD SVG 20010904//EN'  'http://www.w3.org/TR/2001/REC-SVG-20010904/DTD/svg10.dtd'>
<svg width="52px" height="36px" version="1.0" viewBox="0 0 520 360" xmlns="http://www.w3.org/2000/svg">
<g fill="#57ad57">
<path d="m71 265c-39-52-71-99-71-105s30-10 74-10h74l37 50 37 50 34-45c19-25 38-45 42-45s25 23 45 50l37 50-37 50-37 50h-82-82l-71-95z"/>
<path d="m179 156l-36-52 36-52 36-51 80-1h80l68 91c38 49 71 97 74 105 4 11-9 14-73 14l-79-1-34-49-34-50-35 50c-19 27-38 50-41 50-3-1-22-25-42-54z"/>
</g>
</svg>
