<?xml version="1.0" encoding="UTF-8"?>
<!DOCTYPE svg  PUBLIC '-//W3C//DTD SVG 20010904//EN'  'http://www.w3.org/TR/2001/REC-SVG-20010904/DTD/svg10.dtd'>
<svg width="225px" height="155px" version="1.0" viewBox="0 0 2250 1550" xmlns="http://www.w3.org/2000/svg">
<g fill="#a22369">
<path d="m335 1133c-171-229-316-425-323-435-13-17-1-18 310-18h324l159 215c87 118 162 212 166 208 5-5 77-102 162-216l155-208 98 133c53 73 126 171 160 217 37 50 60 89 55 95-4 6-76 104-160 219l-153 207h-322-322l-309-417z"/>
<path d="m803 654l-160-217 66-91c36-50 109-148 161-218l94-128h321 321l169 228c93 125 221 297 285 382 63 85 133 179 154 208l38 52h-324-323l-160-215c-87-118-162-212-166-208-4 5-73 98-154 208s-151 203-155 208c-3 4-79-90-167-209z"/>
</g>
</svg>