<?xml version="1.0" encoding="UTF-8"?>
<!DOCTYPE svg  PUBLIC '-//W3C//DTD SVG 20010904//EN'  'http://www.w3.org/TR/2001/REC-SVG-20010904/DTD/svg10.dtd'>
<svg width="544px" height="278px" version="1.0" viewBox="0 0 5440 2780" xmlns="http://www.w3.org/2000/svg">
<g fill="#152b47">
<path d="m328 2761c-81-26-135-61-196-125-65-68-108-158-122-251-6-44-10-504-10-1227v-1158h2592 2592l38 26c77 54 150 168 190 294 20 66 23 94 22 230-1 139-4 167-32 271-52 202-138 392-293 655-165 279-329 618-412 849-59 163-86 272-102 403l-7 52-2101-1c-2006 0-2105-1-2159-18z"/>
</g>
<g fill="#fefefe">
<path d="m920 1861c-69-21-132-75-165-140-23-46-16-150 13-207 41-81 114-122 362-205l145-48 3-34c4-43-34-91-85-108-91-30-246 14-350 98-29 24-55 43-58 43s-4-53-3-117l3-118 75-37c103-51 201-72 335-72 141 0 231 25 297 84 76 67 81 86 87 395l6 270 38 3c37 3 37 3 37-36 0-53 25-121 60-164 38-46 146-98 329-158 137-45 146-50 149-75 6-46-18-86-62-106-100-46-268-3-386 98l-40 35v-121-121l42-21c221-113 535-113 660-1 77 70 83 93 86 377 1 138 5 260 7 273 6 27 49 30 83 6 20-14 31-13 136 10 188 43 295 30 312-38 12-51-18-75-173-137-169-67-240-126-269-226-14-49-15-67-6-113 31-146 169-234 367-234 75 0 106 6 185 33 52 18 105 39 117 47 21 13 28 12 72-11 164-82 413-95 561-29 66 30 95 56 123 109 21 37 22 58 27 310 3 149 9 276 13 283 13 19 58 14 105-13l42-24v83 83l-67 31c-38 17-88 36-113 41-112 26-215 1-241-58-8-17-16-30-19-28-3 1-33 17-67 35-161 83-317 81-410-5l-40-38-42 32c-106 82-333 96-527 32l-60-19-70 27c-55 21-87 27-154 27-95 1-129-13-158-63l-15-27-73 36c-156 79-313 78-399-1-20-18-22-18-72 6-158 76-304 72-358-11l-20-31-65 34c-107 55-234 77-310 54zm293-187c65-33 67-37 67-156 0-59-2-108-4-108-11 0-135 56-166 76-44 27-59 44-70 84-10 34 0 73 27 102 21 23 102 24 146 2zm920 0c65-33 67-37 67-155v-108l-38 13c-71 25-160 75-181 102-31 39-29 107 4 139 29 30 98 34 148 9zm1576-17l41-27v-111c0-110 0-110-22-103-50 14-164 73-186 94-49 46-54 104-15 150 25 30 30 32 84 28 41-3 69-12 98-31zm-413-218c12-20 146-78 301-130 146-48 153-52 153-77 0-69-67-122-154-122-52 0-175 37-259 78l-57 29-118-60c-103-52-127-60-189-64-67-5-73-4-97 20-14 14-26 32-26 40 0 25 44 55 135 92 50 21 112 48 138 62 56 28 133 96 142 124 7 21 20 25 31 8z"/>
</g>
</svg>
