<svg xmlns="http://www.w3.org/2000/svg" viewBox="0 0 325 79" style="fill-rule:evenodd;clip-rule:evenodd;stroke-linejoin:round;stroke-miterlimit:1.41421;" fill="#bb0060"><path d="M27.141 41.438c0 7.812-.641 13.859-1.922 18.14-2.313 7.594-6.031 13.547-11.157 17.859-.593.532-1.078.797-1.453.797-.343 0-.687-.203-1.031-.609l-5.109-5.766-5.953-5.25C.172 66.234 0 65.922 0 65.672c0-.281.172-.578.516-.891 2.312-2.031 3.781-3.422 4.406-4.172 1.219-1.468 2.156-3.312 2.812-5.531.875-3.031 1.313-8.016 1.313-14.953 0-16.063-.563-28.516-1.688-37.359-.062-.313-.093-.547-.093-.704 0-.562.5-.843 1.5-.843l8.859.281 8.344-.281c.906 0 1.359.406 1.359 1.218l-.187 39zm28.406-9.188l.562 33.281c0 .625-.14 1.016-.422 1.172-.062.031-.468.094-1.218.188-2.031.25-4.75.375-8.157.375-4.562 0-7.468-.125-8.718-.375-.906-.188-1.36-.672-1.36-1.454 0 .5.141-2.25.422-8.25L37.5 32.25l-.656-30.094c0-.687.359-1.031 1.078-1.031l8.765.281 8.579-.281c.906 0 1.359.344 1.359 1.031 0 3.344-.18 8.36-.539 15.047l-.539 15.047zm70.734 1.406c0 9.188-2.953 17.157-8.859 23.907-5.219 6.031-12.547 9.203-21.985 9.515l-14.953.094c-1.531 0-3.836-.047-6.914-.141l-6.914-.14c-.906 0-1.359-.36-1.359-1.078l.797-30.985-.797-32.25c0-.656.453-1.047 1.359-1.172 2.219-.25 5.86-.375 10.922-.375l18.703.422c7.406.75 13.203 2.625 17.391 5.625 3.937 2.813 7.047 6.75 9.328 11.813 2.188 4.781 3.281 9.703 3.281 14.765zm-17.953 0c0-5.281-1.578-9.594-4.734-12.937-3.188-3.469-7.407-5.203-12.657-5.203-4.812 0-7.218.64-7.218 1.922l-.188 16.64.188 16.406c0 1.344 2.5 2.016 7.5 2.016 5.406 0 9.656-1.797 12.75-5.391 2.906-3.406 4.359-7.89 4.359-13.453zm86.391 0c0 9.188-2.953 17.157-8.86 23.907-5.218 6.031-12.546 9.203-21.984 9.515l-14.953.094c-1.531 0-3.836-.047-6.914-.141l-6.914-.14c-.906 0-1.36-.36-1.36-1.078l.797-30.985-.398-16.148-.399-16.102c0-.656.454-1.047 1.36-1.172 2.219-.25 5.859-.375 10.922-.375l18.703.422c7.406.75 13.203 2.625 17.39 5.625 3.938 2.813 7.047 6.75 9.329 11.813 2.187 4.781 3.281 9.703 3.281 14.765zm-17.953 0c0-5.281-1.578-9.594-4.735-12.937-3.187-3.469-7.406-5.203-12.656-5.203-4.812 0-7.219.64-7.219 1.922l-.187 16.64.187 16.406c0 1.344 2.5 2.016 7.5 2.016 5.407 0 9.657-1.797 12.75-5.391 2.907-3.406 4.36-7.89 4.36-13.453zm81.093 32.766c0 .219-.312.375-.937.469-1.188.187-4.172.281-8.953.281-4.094 0-6.875-.094-8.344-.281-.687-.094-1.078-.172-1.172-.235-.187-.093-.406-.406-.656-.937l-2.063-5.438-5.718-13.828c-.563-1.219-1.86-1.891-3.891-2.015.938.062-.672.093-4.828.093-.469 0-.703.797-.703 2.391 0 2.125.195 5.297.586 9.516l.586 9.515c0 .531-.141.844-.422.938l-1.313.093c-1.843.125-4.718.188-8.625.188-4.468 0-7.156-.094-8.062-.281s-1.36-.672-1.36-1.453l.985-31.172-.938-31.594c-.031-.531.461-.891 1.477-1.078s5.789-.375 14.32-.563l13.828-.187c7.125 0 12.938 1.609 17.438 4.828 5.094 3.625 7.64 8.859 7.64 15.703 0 4.562-.656 8.203-1.968 10.922s-3.735 5.359-7.266 7.922c-.719.5-1.078.968-1.078 1.406 0-.031 1.906 3.891 5.719 11.766s5.718 12.218 5.718 13.031zm-19.687-42.047c0-3.813-1.25-6.453-3.75-7.922-1.938-1.125-4.969-1.687-9.094-1.687-2.969 0-4.547.453-4.734 1.359-.188 1.062-.281 4.125-.281 9.188l.093 6.328c0 .156.5.312 1.5.468 1.907.282 3.907.422 6 .422 6.844 0 10.266-2.718 10.266-8.156zm86.812 41.344c0 .562-.39.953-1.172 1.172-.937.25-3.843.375-8.718.375-4.469 0-7.344-.125-8.625-.375-1.063-.219-1.735-.922-2.016-2.11-1.062-4.5-1.89-6.906-2.484-7.219-.5-.218-4.688-.328-12.563-.328-5.312 0-8.14.141-8.484.422-.531.5-1.125 2.172-1.781 5.016-.594 2.594-1.313 4-2.157 4.219-1.062.25-4.625.375-10.687.375-4.781 0-7.172-.454-7.172-1.36 0-.812 3.531-10.797 10.594-29.953l12.468-34.172C282.562.594 283 0 283.5 0c.844 0 2.148.078 3.914.234l3.961.235c.844 0 2.086-.055 3.727-.164l3.679-.164c.594 0 1.141.515 1.641 1.547 1.531 3.281 6 14.531 13.406 33.75l11.156 30.281zM291.75 23.016c-.656 1.375-1.766 4.359-3.328 8.953-1.688 4.875-2.531 7.734-2.531 8.578 0 .562.937.875 2.812.937.969.063 2.563.094 4.781.094 2.063 0 3.204-.25 3.422-.75.063-.156.094-.375.094-.656 0-1.031-.719-3.875-2.156-8.531-1.407-4.5-2.438-7.375-3.094-8.625z" fill-rule="nonzero"/></svg>