<?xml version="1.0" encoding="UTF-8"?>
<!DOCTYPE svg  PUBLIC '-//W3C//DTD SVG 20010904//EN'  'http://www.w3.org/TR/2001/REC-SVG-20010904/DTD/svg10.dtd'>
<svg width="237px" height="207px" version="1.0" viewBox="0 0 2370 2070" xmlns="http://www.w3.org/2000/svg">
<g fill="#cd1e2b">
<path d="m0 2064c0-4 204-361 453-795l452-789h118 117v470c0 369-3 470-12 470-7 0-53 93-102 208-49 114-92 210-96 214-3 5-46-88-96-205l-90-212-102-3c-86-2-102 0-102 13 0 9 9 15 24 15 61 0 68 53 41 351-17 194-23 217-64 225-17 4-31 14-34 25-5 18-18 19-256 19-138 0-251-3-251-6z"/>
<path d="m737 2050c-3-13-14-20-31-20-16 0-31-9-42-25-15-22-16-50-9-241 4-118 10-213 13-210 8 9 192 490 192 503 0 9-18 13-59 13-50 0-59-3-64-20z"/>
<path d="m900 2058c0-7 46-126 103-264l102-251 3 230c3 243 0 257-43 257-14 0-25 7-28 20-4 17-14 20-71 20-45 0-66-4-66-12z"/>
<path d="m1323 2050c-3-13-14-20-29-20-46 0-51-27-58-290-5-213-4-248 10-268 8-12 26-22 40-22s24-6 24-14c0-10-14-16-42-18l-43-3-3-468-2-468 121 3 121 3 449 780c247 429 449 786 449 793 0 9-110 12-516 12-507 0-516 0-521-20z"/>
<path d="m1167 1413c-4-3-7-215-7-470 0-456 0-463 20-463s20 7 20 470c0 385-2 470-13 470-8 0-17-3-20-7z"/>
<path d="m932 440c11-33 245-429 252-427 11 3 245 408 246 425 0 9-57 12-251 12-156 0-249-4-247-10z"/>
</g>
<g fill="#e9644d">
<path d="m0 2063c0-5 112-7 249-5 218 2 250 1 254-13 4-11 5-11 3 2-1 17-21 18-254 21-138 1-252-1-252-5z"/>
<path d="m740 2048c-10-20-9-21 3-6 9 11 32 18 68 21l54 3-57 2c-50 2-59-1-68-20z"/>
<path d="m967 2063c47-3 63-8 67-21s4-12 3 3c-2 18-10 20-67 21h-65l62-3z"/>
<path d="m1323 2054c-3-8-3-18 1-21 3-4 6 1 6 10 0 24 35 22 60-3 11-11 29-20 39-20s22-8 26-17c11-30 6-515-6-529-6-7-23-14-37-16-19-2-27-9-27-23 0-19 8-20 232-23l232-2 6 42c18 118-15 167-52 79-18-43-26-51-59-60-43-12-104-14-128-5-13 5-16 26-16 125v119h70c57 0 74-4 90-20 11-11 20-27 20-35s9-15 20-15c19 0 20 7 20 105 0 94-2 105-18 105-11 0-21-11-27-32-11-37-32-46-117-47l-58-1v99c0 125 8 146 54 155 20 4 39 13 44 21 6 12 62 15 337 18 235 2 181 3-188 4-451 2-519 0-524-13z"/>
<path d="m1242 1910c0-19 2-27 5-17 2 9 2 25 0 35-3 9-5 1-5-18z"/>
<path d="m653 1820c0-36 2-50 4-32 2 17 2 47 0 65-2 17-4 3-4-33z"/>
<path d="m603 1775c0-22 2-30 4-17 2 12 2 30 0 40-3 9-5-1-4-23z"/>
<path d="m613 1645c0-22 2-30 4-17 2 12 2 30 0 40-3 9-5-1-4-23z"/>
<path d="m1234 1575c0-49 1-71 3-48s2 64 0 90-3 8-3-42z"/>
<path d="m661 1596c-1-30 3-46 8-40 5 5 6 27 1 49l-8 40-1-49z"/>
<path d="m1249 1468c7-10 25-17 40-17l26 2-25 4c-14 3-32 10-40 16-13 11-13 10-1-5z"/>
<path d="m565 1460c-28-7-28-8-5-9 14 0 32 4 40 9 17 11 8 11-35 0z"/>
<path d="m1167 1413c-4-3-7-215-7-470 0-456 0-463 20-463 19 0 20 7 20 240 0 209-2 240-15 240-14 0-15 29-13 230 2 127 3 230 2 230 0 0-4-3-7-7z"/>
<path d="m1227 1413c-4-3-7-215-7-470v-463h114c100 0 114 2 118 17 3 10 86 160 186 333 99 173 179 316 177 318-1 2-26-11-54-28-118-73-305-134-450-148l-82-8 3 228c2 125 3 228 2 228 0 0-4-3-7-7z"/>
<path d="m550 1146c0-1 83-147 185-324s185-327 185-332c0-6 44-10 110-10h110v240 240l-22 4c-13 2-62 9-110 15-114 15-249 60-365 121-51 27-93 47-93 46z"/>
<path d="m930 443c0-5 75-7 167-5 310 4 340 8 86 10-139 1-253-1-253-5z"/>
<path d="m970 425c0-3 48-89 106-191l106-184 77 132c42 73 92 159 110 191l32 57h-215c-119 0-216-2-216-5z"/>
</g>
<g fill="#e8989d">
<path d="m0 2063c0-5 111-7 247-5 192 2 248 0 255-10s9-9 5 2c-3 13-42 15-255 18-139 1-252-1-252-5z"/>
<path d="m778 2063c18-2 45-2 60 0s0 4-33 4-45-2-27-4z"/>
<path d="m967 2063c47-3 63-8 67-21s4-12 3 3c-2 18-10 20-67 21h-65l62-3z"/>
<path d="m1323 2055c-3-9-3-19 1-22 3-4 6 1 6 10s11 17 28 20l27 4-28 2c-17 0-30-5-34-14z"/>
<path d="m1390 2051c0-12 11-21 32-27 45-13 50-45 46-310-3-237-7-254-54-254-19 0-24-5-24-25v-25h229 229l7 76c6 60 5 78-6 85-21 13-22 12-46-41-18-43-26-50-63-60-22-6-62-10-88-8l-47 3-3 123-3 123 78-3c77-3 78-3 93-35 8-18 23-33 33-33 15 0 17 12 17 105 0 98-1 105-20 105-13 0-20-7-20-20 0-41-34-60-110-60h-70v99c0 125 8 148 55 157 25 4 35 11 35 25 0 18-10 19-150 19-139 0-150-1-150-19z"/>
<path d="m1863 2063c92-2 242-2 335 0 92 1 16 3-168 3s-260-2-167-3z"/>
<path d="m652 1790c0-19 2-27 5-17 2 9 2 25 0 35-3 9-5 1-5-18z"/>
<path d="m1233 1605c0-33 2-45 4-27s2 45 0 60-4 0-4-33z"/>
<path d="m660 1574c0-14 4-23 9-20s7 15 4 26c-7 28-13 25-13-6z"/>
<path d="m570 1460c-21-7-21-8-5-9 11 0 27 4 35 9 18 11 5 11-30 0z"/>
<path d="m1165 1408c-3-7-4-220-3-473l3-460 5 473c3 259 4 472 2 472-1 0-5-6-7-12z"/>
<path d="m930 443c0-5 75-7 167-5 310 4 340 8 86 10-139 1-253-1-253-5z"/>
</g>
<g fill="#fffefe">
<path d="m1390 2050c0-15 7-20 24-20 52 0 56-22 56-290s-4-290-56-290c-17 0-24-5-24-20 0-19 7-20 230-20h230v49c0 27 3 63 6 80 6 26 4 31-14 31-13 0-22-9-26-24-3-14-18-38-32-55-25-30-29-31-105-31h-79v130 130h70c57 0 74-4 90-20 11-11 20-27 20-35s9-15 20-15c19 0 20 7 20 95 0 85-2 95-18 95-12 0-21-11-27-32l-10-33-82-3-83-3v115c0 127 8 146 61 146 22 0 29 5 29 20 0 19-7 20-150 20s-150-1-150-20z"/>
</g>
</svg>
