<?xml version="1.0" encoding="UTF-8"?>
<!DOCTYPE svg  PUBLIC '-//W3C//DTD SVG 20010904//EN'  'http://www.w3.org/TR/2001/REC-SVG-20010904/DTD/svg10.dtd'>
<svg width="50px" height="38px" version="1.0" viewBox="0 0 500 380" xmlns="http://www.w3.org/2000/svg">
<g fill="#3787c8">
<path d="m71 279c-39-55-71-104-71-110 0-5 33-9 73-9h73l35 50 35 50 29-50c17-27 35-50 40-50 6 0 20 17 33 38 12 20 27 44 34 53 9 14 5 27-26 73l-37 56h-74-73l-71-101z"/>
<path d="m321 170c-19-28-35-50-37-50-1 0-15 20-31 45-15 25-32 45-38 45-13 0-78-96-74-107 2-5 18-30 34-56l30-46 81-1c60 0 83 4 87 14 3 7 33 51 66 98 34 47 61 90 61 97s-25 11-72 11h-73l-34-50z"/>
</g>
<g fill="#499fd8">
<path d="m159 348c12-18 43-68 69-110 41-68 72-97 72-68 0 5 14 29 31 54l32 45-37 55-37 56h-76-75l21-32z"/>
<path d="m173 162c-18-26-33-51-33-56s16-30 36-57l36-49h79c76 0 78 1 61 18-10 10-42 57-72 105s-59 87-65 87c-5 0-25-21-42-48z"/>
</g>
</svg>
