<?xml version="1.0" encoding="UTF-8"?>
<!DOCTYPE svg  PUBLIC '-//W3C//DTD SVG 1.1//EN'  'http://www.w3.org/Graphics/SVG/1.1/DTD/svg11.dtd'>
<svg clip-rule="evenodd" fill-rule="evenodd" stroke-linejoin="round" stroke-miterlimit="1.4142" version="1.1" viewBox="0 0 60 59" xml:space="preserve" xmlns="http://www.w3.org/2000/svg"><path d="m12.5 58c-0.3-0.6-3.1-2.8-6-5s-5.6-4.9-6-6c-0.9-2.7 1.8-6.8 5.2-8.1 2.5-0.9 3.9-0.7 9.6 1.6 1.6 0.7 1.7-0.5 1.7-17.4 0-18 0-18.2 2.5-20.6 2.9-3 5.5-3.2 8.6-0.6 2.1 1.7 2.4 3 2.7 10 0.4 8.1 0.4 8.1 3.2 8.1 1.5 0 3.4 0.8 4.3 1.8 1.2 1.3 2.6 1.7 4.7 1.4s3.8 0.2 5.2 1.4c1.1 1.1 2.8 1.9 3.7 2s2.4 0.2 3.3 0.3c3.6 0.3 4.8 5.2 4.8 19.1 0 12-0.2 13.1-1.7 12.8-1.6-0.3-1.9-2-2.3-14.3-0.5-12.8-0.7-14-2.4-14.3-1.1-0.3-2.5 0.4-3.2 1.3-1.5 2-3.4 1.2-3.4-1.4 0-4.3-5.3-5-6.3-0.9-0.8 2.9-3.1 1.7-3.5-1.9-0.6-6-6.2-5.3-6.2 0.7 0 3.3-1.2 5-3.6 5-0.2 0-0.5-6.4-0.6-14.2l-0.3-14.3h-2.5-2.5l-0.8 21c-0.5 11.5-0.9 21.1-1.1 21.2-0.1 0.2-2.5-0.9-5.2-2.4-3.6-1.9-5.7-2.4-7.7-1.9-4.4 1.1-3.4 3.9 3.1 8.8 5.5 4.2 7 6.7 4.5 7.5-0.6 0.2-1.4-0.1-1.8-0.7z" fill="#1e78d6" fill-rule="nonzero"/></svg>
