<?xml version="1.0" encoding="UTF-8"?>
<!DOCTYPE svg  PUBLIC '-//W3C//DTD SVG 20010904//EN'  'http://www.w3.org/TR/2001/REC-SVG-20010904/DTD/svg10.dtd'>
<svg width="959px" height="875px" version="1.0" viewBox="0 0 9590 8750" xmlns="http://www.w3.org/2000/svg">
<g fill="#bed77e">
<path d="m755 8733c-355-76-630-343-721-701l-24-95v-3562-3562l24-95c86-339 332-592 672-690l79-23h4015 4015l79 23c335 97 580 345 674 684 16 59 17 271 17 3663s-1 3604-17 3663c-78 282-268 510-522 628-40 18-106 43-147 56l-74 23-4e3 2c-3522 1-4008 0-4070-14zm4480-599c371-96 422-601 77-771-74-37-79-38-186-38-104 0-115 2-176 32-158 77-248 229-238 403 15 260 268 441 523 374zm2430-22c87-41 167-118 208-201 30-62 32-72 32-176 0-103-2-114-32-178-40-85-111-155-200-199-64-31-73-33-178-33-103 0-114 2-177 32-88 41-160 113-201 201-30 63-32 74-32 177 0 105 2 114 33 178 77 156 223 241 399 233 66-3 95-10 148-34zm-6425-132v-150h180 180v-95-95h-180-180v-55-55h205 205v-95-95l-307 2-308 3-3 380c-1 209 0 386 3 392 3 9 34 13 105 13h100v-150zm1148 48l3-98h-211-210v-295-295h-105-105v395 395l313-2 312-3 3-97zm720 5l3-93h-216-215v-55-55h200 200v-95-95h-200-200v-55-55l213-2 212-3 3-92 3-93h-316-315v395 395l313-2 312-3 3-92zm375 7c32-47 64-94 71-105 12-18 18-11 85 88l71 107h121c101 0 120-2 116-14-3-8-61-97-128-198-67-100-122-187-122-193s54-92 121-193c67-100 122-184 122-187s-55-5-122-5h-123l-59 91c-32 49-63 92-67 95-5 3-37-38-71-90l-63-96h-122c-68 0-123 2-123 5s55 87 122 187c67 101 121 187 121 193 0 5-57 97-126 203-70 106-127 195-127 198 0 2 55 3 123 2l122-3 58-85zm809-41l3-132 105 129 106 129 122 3c81 2 122-1 122-8 0-6-67-100-150-210l-150-199 161-186 160-185h-134-133l-107 131-107 131v-131-131h-110-110v388c0 214 3 392 7 395 3 4 53 7 109 7h103l3-131zm2548-169v-299l113-3 112-3 3-92 3-93h-336-335v95 94l113 3 112 3 3 298 2 297h105 105v-300zm1490 0v-300h115 115v-95-95h-335-335v95 94l113 3 112 3 3 298 2 297h105 105v-300zm-2488 89l3-201 130 201 130 201h108 107v-390-390h-105-105l-2 207-3 208-134-208-134-207h-103-104v390 390h105 105l2-201zm-4568-1363c248-402 474-634 699-718l62-23 1235-6c1330-6 1288-4 1431-58 289-109 807-677 1253-1375 42-65 76-123 76-128s-735-7-1792-5c-1783 3-1793 3-1883 24-457 107-848 438-1070 905-141 298-183 544-172 1002 4 137 12 276 20 321 16 87 48 208 53 202 2-2 42-65 88-141zm766-2381c93-121 244-238 405-316 114-54 231-91 390-121 107-20 151-21 1810-28 1709-8 1811-11 1975-45 233-50 511-218 865-524 221-191 556-534 796-816 116-135 209-254 209-266 0-7-812-9-2387-6-2162 3-2398 5-2491 20-492 79-891 282-1223 623-250 258-409 549-481 881-26 123-28 314-5 420 19 83 74 233 87 233 4 0 27-25 50-55z"/>
<path d="m5067 7940c-140-42-190-233-91-349 125-145 354-54 354 141 0 146-129 248-263 208z"/>
<path d="m7415 7931c-137-64-168-246-59-355 100-100 271-60 328 76 58 139-49 299-199 298-16 0-48-9-70-19z"/>
</g>
<g fill="#fefefd">
<path d="m5019 8136c-171-48-297-201-307-376-10-174 80-326 238-403 61-30 72-32 176-32 107 0 112 1 186 38 254 125 313 457 118 657-107 110-268 155-411 116zm179-202c155-64 181-282 44-378-112-79-274-18-312 119-46 166 116 323 268 259z"/>
<path d="m7390 8137c-122-35-217-113-272-224-31-64-33-73-33-178 0-103 2-114 32-177 41-88 113-160 201-201 63-30 74-32 177-32 105 0 114 2 178 33 89 44 160 114 200 199 30 64 32 75 32 178 0 104-2 114-32 176-41 83-121 160-208 201-77 36-199 47-275 25zm165-198c50-14 120-84 134-136 40-144-55-283-194-283-180 0-273 229-147 364 54 58 127 77 207 55z"/>
<path d="m1035 8117c-3-6-4-183-3-392l3-380 308-3 307-2v95 95h-205-205v55 55h180 180v95 95h-180-180v150 150h-100c-71 0-102-4-105-13z"/>
<path d="m1760 7735v-395h105 105v295 295h210 211l-3 98-3 97-312 3-313 2v-395z"/>
<path d="m2480 7735v-395h315 316l-3 93-3 92-212 3-213 2v55 55h200 200v95 95h-200-200v55 55h215 216l-3 93-3 92-312 3-313 2v-395z"/>
<path d="m3180 8126c0-3 57-92 127-198 69-106 126-198 126-203 0-6-54-92-121-193-67-100-122-184-122-187s55-5 123-5h122l63 96c34 52 66 93 71 90 4-3 35-46 67-95l59-91h123c67 0 122 2 122 5s-55 87-122 187c-67 101-121 187-121 193s55 93 122 193c67 101 125 190 128 198 4 12-15 14-116 14h-121l-71-107c-67-99-73-106-85-88-7 11-39 58-71 105l-58 85-122 3c-68 1-123 0-123-2z"/>
<path d="m4077 8123c-4-3-7-181-7-395v-388h110 110v131 131l107-131 107-131h133 134l-160 185-161 186 150 199c83 110 150 204 150 210 0 7-41 10-122 8l-122-3-106-129-105-129-3 132-3 131h-103c-56 0-106-3-109-7z"/>
<path d="m6628 7833l-3-298-112-3-113-3v-94-95h335 336l-3 93-3 92-112 3-113 3v299 300h-105-105l-2-297z"/>
<path d="m8118 7833l-3-298-112-3-113-3v-94-95h335 335v95 95h-115-115v300 300h-105-105l-2-297z"/>
<path d="m5630 7730v-390h104 103l134 207 134 208 3-208 2-207h105 105v390 390h-107-108l-130-201-130-201-3 201-2 201h-105-105v-390z"/>
<path d="m1165 6638c-35-124-46-225-52-464-11-458 31-704 172-1002 222-467 613-798 1070-905 90-21 100-21 1883-24 1057-2 1792 0 1792 5s-34 63-76 128c-446 698-964 1266-1253 1375-143 54-101 52-1431 58l-1235 6-62 23c-225 84-451 316-699 718-46 76-86 139-88 141s-11-25-21-59z"/>
<path d="m1951 4150c-90-232-87-474 9-763 85-254 227-483 429-691 332-341 731-544 1223-623 93-15 329-17 2491-20 1575-3 2387-1 2387 6 0 12-93 131-209 266-240 282-575 625-796 816-354 306-632 474-865 524-164 34-266 37-1975 45-1659 7-1703 8-1810 28-159 30-276 67-390 121-161 78-312 195-405 316-23 30-46 55-50 55-5 0-22-36-39-80z"/>
</g>
</svg>
