<?xml version="1.0" encoding="UTF-8"?>
<!DOCTYPE svg  PUBLIC '-//W3C//DTD SVG 1.1//EN'  'http://www.w3.org/Graphics/SVG/1.1/DTD/svg11.dtd'>
<svg clip-rule="evenodd" fill-rule="evenodd" stroke-linejoin="round" stroke-miterlimit="1.4142" version="1.1" viewBox="0 0 144 81" xml:space="preserve" xmlns="http://www.w3.org/2000/svg"><g fill-rule="nonzero"><path d="m27 46.7c0-3.8 4.3-11 7.9-13.4 3.4-2.3 3.6-2.3 42.7-2.3h39.4v2.3c0 3.8-4.3 11-7.9 13.4-3.4 2.3-3.6 2.3-42.7 2.3h-39.4v-2.3z" fill="#71d082"/><path d="m54 15.3c0-4.1 3.9-11.3 7.4-13.4 2.9-1.8 5.6-1.9 43-1.9h39.9l-0.6 3.5c-0.9 5.5-4.5 10.5-9.1 12.6-3.8 1.7-7.2 1.9-42.3 1.9h-38.3v-2.7z" fill="#44c15b"/></g><path d="m27 46.3c0-2.3 0.2-2.5 1.1-1.3 0.8 1.1 0.9 0.8 0.4-1.3-0.4-1.9-0.2-2.6 0.5-2.2 0.9 0.6 1.1 0.2 1.4-3.2 0.2-2.1 3.8-5.2 5.4-4.6 0.9 0.4 1.3 0.2 0.9-0.4s0-1.4 0.9-1.7 19.1-0.6 40.5-0.6h38.9v2.8c0 2.2-0.2 2.4-1.1 1.2-0.8-1.1-0.9-0.8-0.4 1.3 0.4 1.9 0.2 2.6-0.5 2.2-0.9-0.6-1.1-0.2-1.4 3.2-0.2 2.1-3.8 5.2-5.4 4.6-0.9-0.4-1.3-0.2-0.9 0.4s0 1.4-0.9 1.7-19.1 0.6-40.5 0.6h-38.9v-2.7z" fill="#71d082" fill-rule="nonzero"/><path d="m0.5 76.7c1-4.8 3.7-8.9 7.5-11.5 3.4-2.2 3.4-2.2 42.7-2.2l39.4 0.1-0.6 3.2c-1 4.8-3.7 8.9-7.5 11.5-3.4 2.2-3.4 2.2-42.7 2.2l-39.4-0.1 0.6-3.2z" fill="#9ddea9" fill-rule="nonzero"/></svg>
