<?xml version="1.0" standalone="no"?>
<!DOCTYPE svg PUBLIC "-//W3C//DTD SVG 20010904//EN"
 "http://www.w3.org/TR/2001/REC-SVG-20010904/DTD/svg10.dtd">
<svg version="1.0" xmlns="http://www.w3.org/2000/svg"
 width="449.000000pt" height="101.000000pt" viewBox="0 0 449.000000 101.000000"
 preserveAspectRatio="xMidYMid meet">

<g transform="translate(0.000000,101.000000) scale(0.100000,-0.100000)"
fill="#58B652" stroke="none">
<path d="M0 505 l0 -505 2245 0 2245 0 0 505 0 505 -2245 0 -2245 0 0 -505z
m3973 318 c23 -21 22 -68 -3 -93 -24 -24 -77 -26 -102 -3 -18 16 -24 68 -10
89 24 35 79 39 115 7z m-225 -29 c22 -15 22 -20 22 -220 0 -128 -4 -213 -11
-226 -26 -49 -159 -74 -251 -46 -136 40 -170 254 -55 342 38 29 113 48 156 40
l31 -6 0 59 c0 33 3 63 7 66 12 13 79 7 101 -9z m-3194 -40 c10 -26 7 -69 -6
-82 -7 -7 -36 -12 -65 -12 l-53 0 0 -180 0 -180 -32 -1 c-57 -2 -73 2 -90 23
-16 17 -18 42 -18 179 l0 159 -59 0 c-58 0 -60 1 -66 30 -5 21 -2 39 9 55 l16
25 179 0 c154 0 180 -2 185 -16z m1787 0 c7 -9 15 -47 18 -85 l6 -69 73 85
c75 87 92 96 135 74 29 -16 37 -28 37 -62 0 -22 -16 -46 -67 -98 l-67 -69 30
-33 c16 -17 50 -55 77 -83 42 -45 47 -53 38 -76 -5 -14 -23 -31 -40 -38 -46
-19 -79 0 -153 86 l-63 75 -3 -81 -3 -80 -32 -1 c-59 -2 -82 2 -94 19 -10 11
-13 75 -13 234 l0 218 54 0 c37 0 58 -5 67 -16z m1845 -15 c8 -6 14 -29 14
-50 l0 -39 49 0 c55 0 62 -6 63 -52 1 -39 -23 -58 -74 -58 l-38 0 0 -65 c0
-55 3 -66 21 -75 11 -7 32 -9 46 -5 44 11 60 -48 23 -85 -25 -25 -116 -28
-161 -4 -51 26 -59 62 -59 263 0 162 2 180 18 185 25 7 82 -1 98 -15z m-3379
-64 c23 -6 38 -39 31 -72 -2 -13 -16 -20 -52 -25 -80 -11 -76 -3 -76 -147 0
-108 -3 -130 -16 -135 -28 -11 -69 -6 -92 10 -21 14 -22 22 -22 155 0 77 5
149 10 159 14 26 45 42 110 56 54 12 63 12 107 -1z m810 -6 c18 -6 44 -24 59
-41 l26 -32 -4 -160 c-3 -185 -13 -213 -83 -250 -58 -30 -191 -30 -232 0 -55
41 -37 116 23 94 46 -18 122 -15 145 6 34 31 24 41 -38 36 -73 -4 -138 26
-168 78 -30 52 -28 152 3 203 48 76 153 102 269 66z m430 0 c18 -6 44 -24 59
-41 l26 -32 -4 -160 c-3 -185 -13 -213 -83 -250 -58 -30 -191 -30 -232 0 -55
41 -37 116 23 94 46 -18 122 -15 145 6 34 31 24 41 -38 36 -73 -4 -138 26
-168 78 -30 52 -28 152 3 203 48 76 153 102 269 66z m860 6 c23 -6 38 -39 31
-72 -2 -13 -16 -20 -52 -25 -80 -11 -76 -3 -76 -147 0 -108 -3 -130 -16 -135
-28 -11 -69 -6 -92 10 -21 14 -22 22 -22 155 0 77 5 149 10 159 14 26 45 42
110 56 54 12 63 12 107 -1z m344 -11 c82 -41 119 -169 56 -193 -12 -5 -64 -14
-114 -21 -51 -7 -93 -16 -93 -21 0 -33 107 -51 166 -29 36 14 56 -3 52 -44 -4
-43 -52 -66 -136 -66 -111 0 -182 46 -208 137 -26 90 -1 175 68 226 49 36 149
42 209 11z m-2246 -4 c9 -10 32 -70 50 -132 l33 -113 16 55 c8 30 23 86 32
125 8 38 21 73 27 77 7 4 29 8 49 8 58 0 71 -27 54 -110 -16 -74 -51 -172 -89
-245 -74 -146 -153 -195 -219 -137 -27 23 -22 42 24 89 l42 43 -23 24 c-27 29
-72 136 -97 234 -19 73 -19 74 0 88 28 20 80 18 101 -6z m2965 -6 c12 -12 16
-49 18 -179 l4 -165 -25 -11 c-33 -15 -94 -3 -107 21 -6 10 -10 91 -10 184 0
163 0 165 23 169 34 7 80 -2 97 -19z"/>
<path d="M3545 556 c-27 -27 -34 -90 -14 -127 13 -25 53 -41 85 -33 24 6 25 8
22 93 l-3 86 -32 3 c-24 2 -39 -3 -58 -22z"/>
<path d="M1476 561 c-24 -26 -24 -96 0 -122 18 -20 59 -25 82 -10 9 5 12 28
10 77 l-3 69 -36 3 c-25 2 -40 -3 -53 -17z"/>
<path d="M1906 561 c-24 -26 -24 -96 0 -122 18 -20 59 -25 82 -10 9 5 12 28
10 77 l-3 69 -36 3 c-25 2 -40 -3 -53 -17z"/>
<path d="M3124 580 c-20 -8 -39 -38 -30 -47 7 -8 116 9 116 17 0 15 -31 40
-48 39 -9 0 -26 -4 -38 -9z"/>
</g>
</svg>
