<?xml version="1.0" encoding="UTF-8"?>
<!DOCTYPE svg  PUBLIC '-//W3C//DTD SVG 20010904//EN'  'http://www.w3.org/TR/2001/REC-SVG-20010904/DTD/svg10.dtd'>
<svg width="376px" height="88px" version="1.0" viewBox="0 0 3760 880" xmlns="http://www.w3.org/2000/svg">
<g>
<path d="m3130 866c-122-27-193-90-229-205-15-47-14-121 3-216 35-196 117-325 246-389 78-39 139-51 260-51 96 0 123 4 161 21 69 32 116 79 151 153 31 63 33 72 33 181-1 85-5 129-19 170-78 232-244 352-485 349-36 0-91-6-121-13zm201-231c16-9 43-34 59-57 76-104 82-300 11-338-71-37-150 37-187 175-28 103-9 195 46 222 32 16 35 16 71-2z"/>
<path d="m710 851c-60-21-95-56-110-111-16-55-11-157 10-250 11-47 25-108 32-135 22-95-13-141-85-112-59 25-83 74-106 218-27 166-28 159 14 159 19 0 35 3 35 8 0 4-7 55-17 115l-17 107h-234-234l7-27c3-16 16-64 28-108 22-77 24-80 55-83 23-2 33-9 37-25 20-93 75-358 75-362 0-3-18-5-41-5-29 0-40-4-36-12 2-7 15-55 28-106l24-92h172 173v36 36l36-27c91-70 212-85 304-38 82 42 95 67 94 171-1 55-11 126-28 195-40 166-34 219 24 230 30 6 30 7 30 74 0 114-33 149-145 158-55 4-82 1-125-14z"/>
<path d="m1172 851c-117-40-172-143-172-322 0-215 106-420 254-492 46-23 68-27 141-27 96 0 147 19 197 72l28 30v-36-36h135c133 0 135 0 135 23 0 36-28 201-62 365-36 178-33 202 27 202 40 0 39-4 25 93-15 101-21 112-76 131-101 34-208 17-293-48-19-14-38-26-42-26-3 0-22 13-40 30-67 59-161 74-257 41zm293-244c96-95 115-317 32-371-67-45-164 80-175 225-6 83 2 129 29 163 30 39 64 34 114-17z"/>
<path d="m2617 856c-50-14-90-45-112-86-35-67-28-204 20-373 15-52 23-97 19-113-8-32-46-58-74-49-35 11-88 64-99 98-10 30-51 254-51 276 0 6 16 11 36 11h37l-6 48c-3 26-11 77-17 115l-12 67h-234c-129 0-234-1-234-3s6-26 14-53 21-75 30-106c15-53 19-57 48-60l32-3 38-180c20-99 37-186 38-192 0-8-14-13-39-13h-38l27-102 27-103h174 174l-3 34-4 34 30-22c134-95 291-94 382 3 35 38 38 129 10 261-52 239-51 265 10 287 29 10 30 11 30 79 0 79-13 115-51 134-40 21-146 27-202 11z"/>
</g>
<g fill="#3c3c3c">
<path d="m3733 490l2-44-121-27c-67-14-129-29-138-32-13-5-16 0-17 26 0 18-4 41-8 51-4 11-6-18-3-65 6-118-22-169-92-169-31 0-89 49-106 89-13 33 0 33-194 7-59-8-110-17-113-19-17-17 117-214 137-202 4 3 10-2 13-10 7-18 86-57 152-76 30-8 96-14 165-14 96 0 123 4 161 21 69 32 116 79 151 153 32 64 33 70 32 186-1 66-6 131-12 145-9 22-10 20-9-20z"/>
<path d="m150 492c0-6 11-62 25-126s25-118 25-121-18-5-41-5c-29 0-40-4-36-12 2-7 15-55 28-106l24-92h172 173v36 36l36-27c91-70 212-85 304-37 78 39 95 67 95 155 0 96-13 167-28 161-7-2-70 4-142 15-71 11-133 17-137 15-4-3-5-23-2-44 13-83-18-121-82-100-47 16-90 77-99 139-6 47-8 49-43 56-35 6-201 47-249 61-14 4-23 2-23-4z"/>
<path d="m1021 364c-2-22 31-104 42-104 6 0 8-3 4-6-11-11 34-86 84-139 27-28 73-64 103-78 46-23 68-27 141-27 96 0 147 19 197 72l28 30v-36-36h133c130 0 133 0 135 23 2 27-38 280-45 287-3 3-3-13 0-35l6-40-147 8c-93 5-150 13-155 20-6 8-7 7-4-3 2-8-11-30-30-48-25-25-39-32-56-27-30 10-83 62-98 97-6 16-14 27-16 24-3-2 0-13 6-23 9-18 7-19-52-12-34 4-106 10-160 14-88 6-99 9-107 28-5 12-9 17-9 11z"/>
<path d="m2831 318c-1-18-72-28-218-31-50-1-73-6-73-14 0-7-11-20-25-29-32-21-72-6-115 43-17 18-30 31-30 27s8-16 17-26c16-18 12-18-137-16l-154 3-8 25c-4 16-5 9-2-17l6-43h-40-39l27-102 27-103h174 174l-3 34-4 34 30-22c105-74 222-92 310-47 77 39 95 65 99 144 2 56-13 191-16 140z"/>
</g>
</svg>
