<?xml version="1.0" encoding="UTF-8"?>
<!DOCTYPE svg  PUBLIC '-//W3C//DTD SVG 20010904//EN'  'http://www.w3.org/TR/2001/REC-SVG-20010904/DTD/svg10.dtd'>
<svg width="48px" height="43px" version="1.0" viewBox="0 0 480 430" xmlns="http://www.w3.org/2000/svg">
<g fill="#d88066">
<path d="m113 423c-7-2-13-19-13-36 0-41-9-54-42-62-40-10-50-28-46-82 3-40 6-48 24-51 12-2 30-12 40-23 17-19 17-21-4-49-12-16-22-34-22-40 0-14 50-12 79 4 17 9 44 12 83 8 72-6 138 17 172 60 22 29 26 30 56 19 46-15 49-6 12 32-18 18-32 42-32 52 0 11-7 33-15 49-8 15-15 39-15 51 0 49-18 75-50 75-18 0-33-6-36-15-4-11-21-15-56-15-31 0-55 6-64 15-15 15-47 18-71 8zm35-221c2-7-6-12-17-12-21 0-27 11-14 24 9 9 26 2 31-12z"/>
<path d="m315 95c-16-8-42-14-57-15-35 0-38-30-7-61 48-48 132-2 115 64-7 30-9 31-51 12z"/>
</g>
<g fill="#9dc0b3">
<path d="m315 95c-16-8-42-14-57-15-35 0-38-30-7-61 48-48 132-2 115 64-7 30-9 31-51 12z"/>
</g>
</svg>
