<?xml version="1.0" encoding="UTF-8"?>
<!DOCTYPE svg  PUBLIC '-//W3C//DTD SVG 1.1//EN'  'http://www.w3.org/Graphics/SVG/1.1/DTD/svg11.dtd'>
<svg clip-rule="evenodd" stroke-linejoin="round" stroke-miterlimit="1.4142" version="1.1" viewBox="0 0 261 279" xml:space="preserve" xmlns="http://www.w3.org/2000/svg"><g fill="#1567b1"><path d="m113.3 278c-9.5-1.4-20.3-4.1-21.6-5.5-3-2.9-1.6-38.2 2.4-62.5 11.1-66.9 48-139.5 103.7-203.7l5.4-6.3h28.9c22.5 0 28.9 0.3 28.9 1.3 0 0.6-7.8 9.1-17.3 18.7-50.6 51.3-85 105.2-103 161.6-9.1 28.3-12.9 51.5-13.1 79.1l-0.1 18.3-4.5-0.1c-2.5-0.1-6.8-0.5-9.7-0.9z"/><path d="m144.3 256.9c0.6-22.6 2.2-34.6 7.2-54.1 14.5-56.2 48.7-113.3 100.4-167.8l9-9.5 0.1 32.3v32.3l-9.1 10.2c-42.3 47.1-64.2 95.8-70 156.1l-1.2 12.7-3.6 1.5c-5.6 2.4-20.8 6.3-27.4 7l-6 0.7 0.6-21.4z"/><path d="m66.6 262.4c-32.9-19.2-55.7-50.2-64.1-87.4-2.1-9-3.4-59-1.7-59 2 0 27.3 28.3 37.6 42 15.1 20 25.7 38.6 33.1 58.1l3.4 8.7-0.6 20.6c-0.3 11.3-0.9 20.6-1.2 20.5-0.3 0-3.3-1.6-6.5-3.5z"/><path d="m198 258.8c0-3.5 4.1-28.6 5.9-36.1 8.5-35.6 25.1-69.2 48.8-98.2l7.8-9.7 0.3 21.9c0.4 31.1-1.8 44-11 65-8.2 19-24.7 39.3-41.8 51.9-9.1 6.6-10 7.1-10 5.2z"/></g><g fill="#eeac2a"><path d="m74.5 183.3c-11.9-23-30.3-47-56.7-73.9l-17.8-18.1v-27.2c0-31.5-1.2-29.3 11.3-20.3 34.5 24.8 63 58.2 77.8 91.3l4.8 10.5-4 12.5c-2.2 6.8-5.2 17.4-6.7 23.6s-2.9 11.3-3.2 11.3-2.7-4.4-5.5-9.7z"/><path d="m95.6 111.3c-19-33.6-50.1-65.5-86.5-89l-9.1-5.8 0.2-8 0.3-8 30.8-0.3 30.7-0.2 7.3 6.7c21.6 20.4 36.7 41.2 46.7 64.7 6 14.1 6.3 11.9-4 32.9-5.1 10.3-9.3 18.7-9.4 18.7-0.2 0-3.3-5.3-7-11.7z"/><path d="m128.2 57.8c-7.9-16.9-21.1-36.3-33.9-49.8-3.4-3.7-6.3-7-6.3-7.4 0-0.3 20.7-0.6 46-0.6s46 0.3 46 0.7c0 0.3-2.6 3.8-5.8 7.7-9.1 11-25.1 32.9-33.7 45.9-4.2 6.4-7.8 11.7-8 11.7s-2.1-3.7-4.3-8.2z"/></g></svg>
