<?xml version="1.0" encoding="UTF-8"?>
<!DOCTYPE svg  PUBLIC '-//W3C//DTD SVG 1.1//EN'  'http://www.w3.org/Graphics/SVG/1.1/DTD/svg11.dtd'>
<svg clip-rule="evenodd" fill-rule="evenodd" stroke-linejoin="round" stroke-miterlimit="1.4142" version="1.1" viewBox="0 0 192 192" xml:space="preserve" xmlns="http://www.w3.org/2000/svg"><g fill="#020101" fill-rule="nonzero"><path d="m26.9 190.5c-10.9-4-19-11.2-23.6-21l-2.8-6v-67.5-67.5l2.8-6c3.7-7.9 11.4-15.6 19.1-19.2l6.1-2.8 33.8-0.3 33.7-0.3v192.1l-32.7-0.1c-24.4 0-33.7-0.4-36.4-1.4zm55.1-57.9v-10.3l-13-0.5c-16-0.7-20.7-2.6-25.4-10.2-2.6-4.1-3.1-6-3.4-13.6-0.5-10.6 1.3-17.2 6.1-21.8 5.2-5 9.8-6.4 23.4-7l12.3-0.5v-10.3-10.4h-12.2c-22.3 0-32 3-41.9 12.9-9.1 9.1-12.8 19.1-12.9 34.1 0 14.5 3.7 25.3 12 34.3 9.5 10.4 18.7 13.5 40.3 13.6l14.7 0.1v-10.4z"/><path d="m132.9 141.7c-13.6-3.9-21.7-13.5-21.9-25.9v-4.8h24v2.9c0 1.7 1.1 4.2 2.6 6 5.1 6.1 15.4 2.9 15.4-4.8 0-5.2-2.4-7.1-15.9-13.1-12.7-5.5-17.1-8.5-20.6-13.8-7.8-12-3.8-27 9.4-34.9 9.2-5.5 19.5-6.7 30.3-3.3 10.9 3.3 18.1 11.3 19.5 21.5l0.6 4.5h-11.7-11.7l-1.1-3c-1.2-3.6-3.5-5-8.2-5-2.5 0-4 0.7-5.5 2.6-4.6 5.8-1.9 9.2 12.7 16.1 15.1 7 20.4 11 23.6 17.5 4.2 8.4 3.4 18-2.3 27-2.3 3.6-4.4 5.3-9.5 7.8-5.7 2.8-7.9 3.3-15.9 3.6-5.6 0.3-11-0.1-13.8-0.9z"/></g><path d="m96 96v-96.1l33.8 0.3 33.7 0.3 6.6 3.2c8 3.9 15 11.1 18.7 19.1l2.7 5.7v135l-3.2 6.6c-3.9 8-11.1 15-19.1 18.7l-5.7 2.7-33.7 0.3-33.8 0.3v-96.1zm66.6 43c5.1-2.5 7.2-4.2 9.5-7.8 5.7-9 6.5-18.6 2.3-27-3.2-6.5-8.5-10.5-23.6-17.5-14.6-6.9-17.3-10.3-12.7-16.1 1.5-1.9 3-2.6 5.5-2.6 4.7 0 7 1.4 8.2 5l1.1 3h23.4l-0.6-4.5c-2.3-16.5-20.1-26.6-39.5-22.4-19.7 4.2-29.6 24-19.7 39.1 3.5 5.3 7.9 8.3 20.6 13.8 13.5 6 15.9 7.9 15.9 13.1 0 7.7-10.3 10.9-15.4 4.8-1.5-1.8-2.6-4.3-2.6-6v-2.9h-12-12v4.8c0.1 9.3 4.7 17.2 12.7 21.9 7.1 4.1 12.7 5.3 23 4.9 8-0.3 10.2-0.8 15.9-3.6z" fill="#faab0e" fill-rule="nonzero"/><path d="m49 141.6c-21-4.5-33.9-22.3-34-46.6 0-24.3 14.5-42.4 37-45.9 3.6-0.6 11.8-1.1 18.3-1.1h11.7v21h-9.4c-18.3 0-25.5 3-30.2 12.7-4.6 9.4-3.5 24.3 2.4 32.2 4.2 5.6 9.8 7.4 24.5 7.9l12.7 0.4v20.8l-13.7-0.1c-7.6 0-16.3-0.6-19.3-1.3z" fill="#faf8f5" fill-rule="nonzero"/></svg>