<?xml version="1.0" encoding="UTF-8" standalone="no"?><!DOCTYPE svg PUBLIC "-//W3C//DTD SVG 1.1//EN" "http://www.w3.org/Graphics/SVG/1.1/DTD/svg11.dtd"><svg width="100%" height="100%" viewBox="0 0 105 100" version="1.1" xmlns="http://www.w3.org/2000/svg" xmlns:xlink="http://www.w3.org/1999/xlink" xml:space="preserve" xmlns:serif="http://www.serif.com/" style="fill-rule:evenodd;clip-rule:evenodd;stroke-linejoin:round;stroke-miterlimit:1.41421;"><ellipse cx="52.5" cy="50" rx="52.5" ry="50" style="fill:#fca808;"/><path d="M54.4,23.8c-12.3,4.3 -22.5,13 -27.8,23.7c-2,4.2 -2.6,6.9 -2.6,12.2c0,8.9 2.6,13 10.2,16.3c4.7,2 6.3,2.2 15.3,1.7c12.9,-0.7 17.5,-2 17.5,-5.1c0,-3.2 4.5,-16.1 7,-20.2l2.2,-3.4l-8.1,0c-7.9,0 -8.1,0.1 -8.1,2.5c0,3.3 -4.6,15.6 -6.2,16.6c-0.7,0.5 -3.5,0.9 -6.1,0.9c-8.7,0 -12.5,-7.1 -9.3,-17.1c2.5,-7.4 6.1,-12.3 12.3,-16.6c4.7,-3.2 6.4,-3.8 12.2,-4.1c5.4,-0.3 7.6,0 10.8,1.7l4.1,2l1.6,-4.2c0.9,-2.4 1.6,-4.8 1.6,-5.4c0,-3.4 -18.2,-4.4 -26.6,-1.5Z" style="fill-rule:nonzero;"/></svg>