<?xml version="1.0" encoding="UTF-8"?>
<!DOCTYPE svg  PUBLIC '-//W3C//DTD SVG 20010904//EN'  'http://www.w3.org/TR/2001/REC-SVG-20010904/DTD/svg10.dtd'>
<svg width="85px" height="153px" version="1.0" viewBox="0 0 850 1530" xmlns="http://www.w3.org/2000/svg">
<g fill="#ffc300">
<path d="m115 1511c-48-22-79-54-100-103-13-32-15-106-15-515 0-442 2-481 19-518 22-50 69-91 121-106l40-12v-112c0-127 9-145 72-145 59 0 68 20 68 148v112h185c145 0 194 3 223 15 49 21 81 52 103 100 17 37 19 74 19 520s-2 483-19 520c-22 48-54 79-103 100-31 12-86 15-305 15-239 0-272-2-308-19zm220-391c47-47 9-134-59-134-61 0-100 58-74 112 26 53 90 63 133 22zm385-235v-65h-155-155v65 65h155 155v-65zm-385-115c47-47 9-134-59-134-61 0-100 58-74 112 26 53 90 63 133 22z"/>
</g>
</svg>
